<?xml version="1.0" encoding="utf-8"?>
<!-- Generator: Adobe Illustrator 17.0.0, SVG Export Plug-In . SVG Version: 6.00 Build 0)  -->
<!DOCTYPE svg PUBLIC "-//W3C//DTD SVG 1.1//EN" "http://www.w3.org/Graphics/SVG/1.1/DTD/svg11.dtd">
<svg version="1.1" id="Слой_1" xmlns:sketch="http://www.bohemiancoding.com/sketch/ns"
	 xmlns="http://www.w3.org/2000/svg" xmlns:xlink="http://www.w3.org/1999/xlink" x="0px" y="0px" width="21px" height="21px"
	 viewBox="1.039 1.272 21 21" enable-background="new 1.039 1.272 21 21" xml:space="preserve">
<g id="slice" transform="translate(215.000000, 119.000000)">
</g>
<g>
	<path fill="#003E7E" d="M6.789,5.272h0.499c0.414,0,0.75-0.334,0.75-0.752V2.025c0-0.416-0.335-0.752-0.75-0.752H6.789
		c-0.414,0-0.75,0.334-0.75,0.752V4.52C6.039,4.935,6.373,5.272,6.789,5.272z"/>
	<path fill="#003E7E" d="M16.039,5.272c0.552,0,1-0.447,1-0.999V2.271c0-0.552-0.449-0.999-1-0.999c-0.552,0-1,0.447-1,0.999v2.002
		C15.039,4.825,15.487,5.272,16.039,5.272z"/>
	<path fill="#003E7E" d="M21.41,3.272h-3.371V4.52c0,0.97-0.783,1.752-1.75,1.752h-0.499c-0.968,0-1.75-0.785-1.75-1.752V3.272h-5
		V4.52c0,0.97-0.783,1.752-1.75,1.752H6.789c-0.968,0-1.75-0.785-1.75-1.752V3.272H1.667c-0.347,0-0.629,0.291-0.629,0.649v17.703
		c0,0.358,0.281,0.649,0.628,0.649H21.41c0.347,0,0.628-0.291,0.628-0.649V3.921C22.039,3.563,21.756,3.272,21.41,3.272z
		 M2.01,14.349h3v3h-3V14.349z M2.032,18.251h3v3h-3V18.251z M5.039,13.272h-3v-3h3V13.272z M6.053,14.349h3v3h-3V14.349z
		 M9.074,21.251h-3v-3h3V21.251z M9.081,13.272H9.039H6.081v-3h2.958h0.042V13.272z M10.01,14.349h3v3h-3V14.349z M10.031,18.251h3
		v3h-3V18.251z M13.039,13.272h-3v-3h3V13.272z M14.017,14.349h3v3h-3V14.349z M17.039,18.272v2.979h-3v-2.979v-0.021h3V18.272z
		 M17.046,13.272h-0.007h-2.993v-3h2.993h0.007V13.272z M18.024,14.349h3v3h-3V14.349z M21.046,21.251h-3v-3h3V21.251z
		 M21.053,13.272h-0.014h-2.986v-3h2.986h0.014V13.272z"/>
</g>
</svg>
