<?xml version="1.0" encoding="utf-8"?>
<!-- Generator: Adobe Illustrator 17.0.0, SVG Export Plug-In . SVG Version: 6.00 Build 0)  -->
<!DOCTYPE svg PUBLIC "-//W3C//DTD SVG 1.1//EN" "http://www.w3.org/Graphics/SVG/1.1/DTD/svg11.dtd">
<svg version="1.1" id="Слой_1" xmlns="http://www.w3.org/2000/svg" xmlns:xlink="http://www.w3.org/1999/xlink" x="0px" y="0px"
	 width="11.744px" height="14.4px" viewBox="2.128 0.8 11.744 14.4" enable-background="new 2.128 0.8 11.744 14.4"
	 xml:space="preserve">
<path d="M9.984,2.768c0,1.088-0.88,1.968-1.968,1.968s-1.968-0.88-1.968-1.968c0-1.088,0.88-1.968,1.968-1.968
	S9.984,1.68,9.984,2.768"/>
<rect x="5.856" y="5.152" width="4.336" height="6.288"/>
<g>
	<g>
		<polygon points="4.64,5.152 4.64,5.152 3.328,6.368 2.384,5.328 3.68,4.112 		"/>
		<polygon points="4.64,5.152 5.472,6.016 4.64,6.944 3.328,6.368 3.472,5.216 		"/>
		<path d="M3.328,6.368L4.64,6.944C3.888,6.944,3.328,6.368,3.328,6.368"/>
		<polygon points="4.64,5.152 4.64,5.152 8.352,5.152 8.352,6.944 4.64,6.944 		"/>
	</g>
</g>
<path d="M3.92,4.72c0,0.496-0.4,0.896-0.896,0.896s-0.896-0.4-0.896-0.896s0.4-0.896,0.896-0.896C3.52,3.824,3.92,4.224,3.92,4.72"
	/>
<g>
	<g>
		<polygon points="7.648,5.152 7.648,6.944 11.36,6.944 11.36,5.152 11.36,5.152 		"/>
		<polygon points="11.36,5.152 10.64,5.968 11.36,6.944 12.672,6.368 12.576,5.28 		"/>
		<polygon points="11.36,5.152 11.36,5.152 12.672,6.368 13.616,5.328 12.32,4.112 		"/>
		<path d="M12.672,6.368L11.36,6.944C12.112,6.944,12.672,6.368,12.672,6.368"/>
	</g>
</g>
<path d="M12.08,4.72c0,0.496,0.4,0.896,0.896,0.896c0.496,0,0.896-0.4,0.896-0.896s-0.4-0.896-0.896-0.896
	C12.48,3.824,12.08,4.224,12.08,4.72"/>
<path d="M7.632,14.304c0,0.496-0.4,0.896-0.896,0.896S5.84,14.8,5.84,14.304s0.4-0.896,0.896-0.896
	C7.232,13.424,7.632,13.824,7.632,14.304"/>
<rect x="5.856" y="9.552" width="1.776" height="4.752"/>
<g>
	<g>
		<path d="M10.112,14.432c0.016,0.016,0.016,0.016,0.032,0.032l0.016,0.016L10.112,14.432z"/>
		<path d="M10.112,14.432l0.064,0.048l1.168-1.344l-0.064-0.064c-0.368-0.288-0.896-0.24-1.216,0.128
			C9.744,13.568,9.776,14.096,10.112,14.432"/>
		<path d="M9.456,13.856l0.656,0.56c-0.336-0.32-0.368-0.864-0.048-1.232c0.304-0.352,0.848-0.4,1.216-0.128l-0.624-0.544l0,0
			l-0.048,0.016L9.456,13.856z"/>
		<path d="M9.456,13.856L8.992,13.2C8.992,13.2,9.184,13.616,9.456,13.856"/>
		<polygon points="8.992,13.2 9.456,13.856 10.48,13.248 10.64,12.528 10.496,12.288 9.664,12.608 		"/>
		<path d="M11.328,13.136L10.16,14.48c0.368,0.304,0.912,0.256,1.232-0.112c0.32-0.368,0.288-0.928-0.096-1.264
			c-0.016-0.016-0.032-0.032-0.048-0.032L11.328,13.136z"/>
		<polygon points="7.2,8.784 8.992,13.2 10.592,12.544 10.624,12.512 10.64,12.528 8.848,8.128 		"/>
		<polygon points="10.592,12.544 10.64,12.528 10.64,12.528 10.624,12.512 		"/>
	</g>
</g>
</svg>
