<?xml version="1.0" encoding="utf-8"?>
<!-- Generator: Adobe Illustrator 17.0.0, SVG Export Plug-In . SVG Version: 6.00 Build 0)  -->
<!DOCTYPE svg PUBLIC "-//W3C//DTD SVG 1.1//EN" "http://www.w3.org/Graphics/SVG/1.1/DTD/svg11.dtd">
<svg version="1.1" id="Слой_1" xmlns="http://www.w3.org/2000/svg" xmlns:xlink="http://www.w3.org/1999/xlink" x="0px" y="0px"
	 width="16px" height="12.715px" viewBox="0 1.642 16 12.715" enable-background="new 0 1.642 16 12.715" xml:space="preserve">
<g id="chat">
	<path d="M0,14.358l2.169-4.549C1.508,8.957,1.173,7.961,1.173,6.846c0-1.63,0.823-2.993,2.379-3.942
		C4.886,2.09,6.673,1.642,8.584,1.642c2.515,0,4.803,0.787,6.119,2.106C15.566,4.612,16.002,5.657,16,6.854
		c-0.003,1.737-0.824,3.192-2.373,4.208c-1.336,0.876-3.127,1.359-5.041,1.359c-1.154,0-2.293-0.181-3.305-0.525
		c-1.678,0.644-4.262,1.947-4.289,1.961L0,14.358z M8.584,2.402c-1.774,0-3.421,0.408-4.637,1.15
		c-0.919,0.56-2.015,1.587-2.015,3.293c0,1.015,0.327,1.911,0.971,2.662l0.161,0.188l-1.429,2.997
		c0.96-0.465,2.426-1.153,3.508-1.557l0.13-0.049l0.131,0.047c0.963,0.345,2.063,0.527,3.182,0.527c1.768,0,3.41-0.438,4.624-1.235
		c0.924-0.606,2.027-1.718,2.03-3.574c0.002-0.988-0.36-1.852-1.074-2.568C12.989,3.106,10.903,2.402,8.584,2.402z"/>
</g>
<g id="Слой_1_1_">
</g>
</svg>
