<?xml version="1.0"?>
<svg width="34.2" height="46.1" xmlns="http://www.w3.org/2000/svg">

 <g>
  <title>background</title>
  <rect fill="none" id="canvas_background" height="48.1" width="36.2" y="-1" x="-1"/>
 </g>
 <g>
  <title>Layer 1</title>
  <path id="svg_1" fill-rule="evenodd" d="m30.113194,46.039574l-26.000236,0c-2.208981,0 -3.999969,-1.791 -3.999969,-4l0,-38.000024c0,-2.209 1.790988,-4.000001 3.999969,-4.000001l18.972999,0c0.001999,0 0.005001,0 0.007,0l0.02,0l0,0c0.320011,0 0.593023,0.161 0.776028,0.395l9.829273,9.828993c0.235001,0.183 0.395,0.456 0.395,0.776l0,0l0,0.021c0,0.002 0,0.003 0,0.005l0,30.974032c0,2.209 -1.791,4 -4.000065,4zm-6.000202,-42.619024l0,6.618992l6.619223,0l-6.619223,-6.618992zm8.000267,8.618992l-9.000301,0c-0.55302,0 -1.000032,-0.448 -1.000032,-1l0,-8.999992l-17.999967,0c-1.103991,0 -1.999983,0.896 -1.999983,2l0,38.000024c0,1.104 0.895992,2 1.999983,2l26.000236,0c1.104038,0 2.000065,-0.896 2.000065,-2l0,-30.000032zm-6.0002,26.000032l-18.000134,0c-0.552998,0 -0.999992,-0.446999 -0.999992,-1c0,-0.551998 0.446995,-1 0.999992,-1l18.000134,0c0.55302,0 1.000034,0.448002 1.000034,1c0,0.553001 -0.447014,1 -1.000034,1zm0,-8.000032l-18.000134,0c-0.552998,0 -0.999992,-0.447001 -0.999992,-1c0,-0.552 0.446995,-1 0.999992,-1l18.000134,0c0.55302,0 1.000034,0.448 1.000034,1c0,0.552999 -0.447014,1 -1.000034,1zm0,-8l-18.000134,0c-0.552998,0 -0.999992,-0.447001 -0.999992,-1c0,-0.552 0.446995,-1 0.999992,-1l18.000134,0c0.55302,0 1.000034,0.448 1.000034,1c0,0.552999 -0.447014,1 -1.000034,1z" clip-rule="evenodd"/>
 </g>
</svg>