<svg version="1.1" xmlns="http://www.w3.org/2000/svg" xmlns:xlink="http://www.w3.org/1999/xlink" x="0px" y="0px" width="29px"
	 height="15.193px" viewBox="-14.641 25.307 29 15.193" enable-background="new -14.641 25.307 29 15.193" xml:space="preserve">
<g id="Layer_1__x28_копия_x29_">
	
		<line fill="none" stroke="#000000" stroke-linecap="round" stroke-linejoin="round" stroke-miterlimit="10" x1="-4.387" y1="25.807" x2="2.323" y2="40"/>
	<path fill="none" stroke="#000000" stroke-linecap="round" stroke-linejoin="round" stroke-miterlimit="10" d="M-0.741,33.522
		c0,0-2.296-0.037-3.497,1.165c-1.267,1.267-1.218,2.079-2.152,3.014c-0.935,0.935-2.153,1.292-2.153,1.292l-5.597-5.597
		c0,0,1.908-0.186,2.998-1.276c1.091-1.091,0.833-2.556,2.155-3.877c2.171-2.171,4.776-2.066,4.776-2.066L-0.741,33.522z"/>
	<path d="M-4.171,26.263l1.057,2.26c-1.368,0.042-2.543,0.596-2.543,0.596l-1.049-2.387c1.158-0.593,2.493-0.555,2.493-0.555"/>
	<path d="M-7.542,30.438c-0.182,0.182-0.31,0.351-0.31,0.351l1.446,2.493c0,0,0.33-0.444,0.72-0.835
		c0.391-0.391,1.159-0.756,1.159-0.756l-1.131-2.573C-5.656,29.118-6.668,29.564-7.542,30.438z"/>
	<path d="M-4.526,31.692l1.096,2.442c1.033-0.577,2.688-0.612,2.688-0.612l-1.125-2.347C-1.866,31.175-3.452,31.215-4.526,31.692z"
		/>
	<path d="M-10.246,30.495l1.449,2.306c0,0,0.555-1.621,0.946-2.012l-1.334-2.301C-9.799,29.162-10.092,30.157-10.246,30.495z"/>
	<path d="M-7.428,34.98l1.42,2.26c0.313-0.313,0.725-1.338,0.976-1.589l-1.373-2.369C-6.664,33.625-7.128,34.47-7.428,34.98z"/>
	<path d="M-9.54,34.034c-0.325,0.325-0.677,0.51-0.677,0.51l1.493,1.756c0,0,0.41-0.284,0.687-0.561
		c0.278-0.278,0.608-0.758,0.608-0.758l-1.369-2.179C-8.797,32.801-9.032,33.526-9.54,34.034z"/>
	<path d="M-14.141,33.396l1.82,1.821c1.276-0.177,2.104-0.673,2.104-0.673l-1.617-1.902C-11.835,32.642-12.668,33.2-14.141,33.396z"
		/>
	<path d="M-7.058,38.254c0,0-0.511,0.396-1.486,0.739l-1.914-1.914c0.978-0.259,1.734-0.778,1.734-0.778L-7.058,38.254z"/>
</g>
<g id="Layer_1">
	
		<line fill="none" stroke="#000000" stroke-linecap="round" stroke-linejoin="round" stroke-miterlimit="10" x1="-2.969" y1="40" x2="3.74" y2="25.807"/>
	<path fill="none" stroke="#000000" stroke-linecap="round" stroke-linejoin="round" stroke-miterlimit="10" d="M3.931,26.154
		c0,0,2.605-0.105,4.776,2.066c1.321,1.321,1.064,2.786,2.155,3.877c1.09,1.09,2.998,1.276,2.998,1.276l-5.597,5.597
		c0,0-1.218-0.356-2.153-1.292c-0.935-0.935-0.885-1.747-2.152-3.014c-1.202-1.202-3.497-1.165-3.497-1.165L3.931,26.154z"/>
	<path d="M3.931,26.154c0,0,1.335-0.038,2.493,0.555l-1.049,2.387c0,0-1.175-0.553-2.543-0.596l1.057-2.26"/>
	<path d="M5.375,29.095l-1.131,2.573c0,0,0.769,0.366,1.159,0.756c0.391,0.391,0.72,0.835,0.72,0.835l1.446-2.493
		c0,0-0.127-0.169-0.31-0.351C6.386,29.541,5.375,29.095,5.375,29.095z"/>
	<path d="M1.585,31.152L0.46,33.499c0,0,1.655,0.035,2.688,0.612l1.096-2.442C3.171,31.192,1.585,31.152,1.585,31.152z"/>
	<path d="M8.905,28.465l-1.334,2.301c0.391,0.391,0.946,2.012,0.946,2.012l1.449-2.306C9.811,30.134,9.518,29.139,8.905,28.465z"/>
	<path d="M6.125,33.26l-1.373,2.369c0.251,0.251,0.663,1.276,0.976,1.589l1.42-2.26C6.847,34.447,6.383,33.602,6.125,33.26z"/>
	<path d="M8.516,32.779l-1.369,2.179c0,0,0.33,0.48,0.608,0.758c0.278,0.278,0.687,0.561,0.687,0.561l1.493-1.756
		c0,0-0.352-0.185-0.677-0.51C8.751,33.503,8.516,32.779,8.516,32.779z"/>
	<path d="M11.553,32.619l-1.617,1.902c0,0,0.828,0.495,2.104,0.673l1.82-1.821C12.386,33.177,11.553,32.619,11.553,32.619z"/>
	<path d="M8.442,36.277c0,0,0.755,0.519,1.734,0.778l-1.914,1.914c-0.975-0.343-1.486-0.739-1.486-0.739L8.442,36.277z"/>
</g>
</svg>
