<?xml version="1.0" encoding="utf-8"?>
<!-- Generator: Adobe Illustrator 17.0.0, SVG Export Plug-In . SVG Version: 6.00 Build 0)  -->
<!DOCTYPE svg PUBLIC "-//W3C//DTD SVG 1.1//EN" "http://www.w3.org/Graphics/SVG/1.1/DTD/svg11.dtd">
<svg version="1.1" id="Livello_1" xmlns="http://www.w3.org/2000/svg" xmlns:xlink="http://www.w3.org/1999/xlink" x="0px" y="0px"
	 width="21px" height="30px" viewBox="19.989 0 101.754 139.273" enable-background="new 19.989 0 101.754 139.273"
	 xml:space="preserve">
<g id="Livello_110">
	<path fill="#003A78" d="M95.35,50.645c0,13.98-11.389,25.322-25.438,25.322c-14.051,0-25.438-11.342-25.438-25.322
		c0-13.984,11.389-25.322,25.438-25.322C83.964,25.322,95.35,36.66,95.35,50.645 M121.743,50.645C121.743,22.674,98.966,0,70.866,0
		C42.768,0,19.989,22.674,19.989,50.645c0,12.298,4.408,23.574,11.733,32.345l39.188,56.283l39.761-57.104
		c1.428-1.779,2.736-3.654,3.916-5.625l0.402-0.574h-0.066C119.253,68.516,121.743,59.874,121.743,50.645"/>
</g>
<g id="Livello_1_1_">
</g>
<g id="Round_2_">
	<g>
		<path fill="#003A78" d="M111.866,51.601c0,22.643-18.357,41-41.001,41c-22.643,0-40.999-18.357-40.999-41
			c0-22.644,18.356-41,40.999-41C93.509,10.602,111.866,28.958,111.866,51.601z"/>
	</g>
</g>
<g id="IH">
	<path fill="#FFFFFF" d="M49.887,22.618c-3.568,0-6.464,2.896-6.464,6.472c0,3.566,2.896,6.465,6.464,6.465
		c3.574,0,6.465-2.899,6.465-6.465C56.352,25.514,53.461,22.618,49.887,22.618z"/>
	<rect x="43.946" y="38.496" fill="#FFFFFF" width="11.862" height="42.723"/>
	<path fill="#FFFFFF" d="M73.417,43.73V21.219H61.25V81.21h12.167V57.917c-0.053-4.677,2.309-9.878,7.572-9.745
		c7.614,0.191,6.999,6.532,6.999,12.379v20.66h11.953l-0.018-25.958c0.189-6.124-0.008-18.605-14.25-18.605
		C80.569,36.646,75.493,39.289,73.417,43.73z"/>
</g>
</svg>
