<?xml version="1.0" encoding="utf-8"?>
<!-- Generator: Adobe Illustrator 17.0.0, SVG Export Plug-In . SVG Version: 6.00 Build 0)  -->
<!DOCTYPE svg PUBLIC "-//W3C//DTD SVG 1.1//EN" "http://www.w3.org/Graphics/SVG/1.1/DTD/svg11.dtd">
<svg version="1.1" id="Livello_1" xmlns="http://www.w3.org/2000/svg" xmlns:xlink="http://www.w3.org/1999/xlink" x="0px" y="0px"
	 width="101.754px" height="139.273px" viewBox="0 0 101.754 139.273" enable-background="new 0 0 101.754 139.273"
	 xml:space="preserve">
<g id="Livello_110">
	<path d="M75.361,50.645c0,13.98-11.389,25.322-25.438,25.322c-14.051,0-25.438-11.342-25.438-25.322
		c0-13.984,11.389-25.322,25.438-25.322C63.975,25.322,75.361,36.66,75.361,50.645 M101.754,50.645
		C101.754,22.674,78.977,0,50.877,0C22.779,0,0,22.674,0,50.645C0,62.943,4.408,74.219,11.733,82.99l39.188,56.283l39.761-57.104
		c1.428-1.779,2.736-3.654,3.916-5.625L95,75.97h-0.066C99.264,68.516,101.754,59.874,101.754,50.645"/>
</g>
<g id="Livello_1_1_">
</g>
</svg>
