<?xml version="1.0" encoding="utf-8"?>
<!-- Generator: Adobe Illustrator 17.0.0, SVG Export Plug-In . SVG Version: 6.00 Build 0)  -->
<!DOCTYPE svg PUBLIC "-//W3C//DTD SVG 1.1//EN" "http://www.w3.org/Graphics/SVG/1.1/DTD/svg11.dtd">
<svg version="1.1" xmlns="http://www.w3.org/2000/svg" xmlns:xlink="http://www.w3.org/1999/xlink" x="0px" y="0px"
	 width="94.109px" height="94.078px" viewBox="0 0 94.109 94.078" enable-background="new 0 0 94.109 94.078" xml:space="preserve">
<g id="Слой_1__x28_копия_x29_">
	<path fill="none" stroke="#000000" stroke-width="2" stroke-miterlimit="10" d="M47.099,92.628L1.505,47.034L47.099,1.44
		l45.594,45.594L47.099,92.628z"/>
	<path display="none" fill="#010202" d="M49.578,39.451h7.313l-0.51,6.382h-6.803v22.174h-8.593V45.834h-4.586v-6.382h4.586v-4.289
		c0-1.887,0.05-4.805,1.477-6.611c1.504-1.91,3.569-3.209,7.116-3.209c5.783,0,8.221,0.791,8.221,0.791l-1.147,6.537
		c0,0-1.91-0.532-3.694-0.532c-1.783,0-3.38,0.612-3.38,2.329L49.578,39.451L49.578,39.451z"/>
</g>
<g id="Слой_1">
	<path display="none" fill="none" stroke="#000000" stroke-miterlimit="10" d="M47.099,92.628L1.505,47.034L47.099,1.44
		l45.594,45.594L47.099,92.628z"/>
	<path display="none" fill="#010202" d="M49.655,42.142h4.59l-0.32,4.006h-4.27v13.917h-5.393V46.147h-2.878v-4.006h2.878v-2.692
		c0-1.184,0.031-3.015,0.927-4.149c0.944-1.199,2.24-2.014,4.466-2.014c3.629,0,5.16,0.497,5.16,0.497l-0.72,4.103
		c0,0-1.199-0.334-2.318-0.334c-1.119,0-2.121,0.384-2.121,1.462L49.655,42.142L49.655,42.142z"/>
	<path display="none" fill="#010202" d="M63.45,38.267c-1.194,0.531-2.48,0.889-3.828,1.049c1.377-0.824,2.433-2.13,2.931-3.688
		c-1.288,0.764-2.714,1.319-4.233,1.618c-1.215-1.295-2.948-2.105-4.865-2.105c-3.681,0-6.665,2.984-6.665,6.665
		c0,0.522,0.059,1.03,0.173,1.519c-5.54-0.278-10.452-2.931-13.739-6.964c-0.574,0.984-0.902,2.129-0.902,3.352
		c0,2.312,1.177,4.353,2.965,5.548c-1.092-0.035-2.12-0.335-3.019-0.834c-0.001,0.028-0.001,0.056-0.001,0.084
		c0,3.229,2.298,5.922,5.347,6.536c-0.559,0.152-1.148,0.233-1.756,0.233c-0.43,0-0.847-0.042-1.254-0.12
		c0.849,2.648,3.31,4.576,6.226,4.629c-2.281,1.788-5.155,2.854-8.278,2.854c-0.537,0-1.068-0.032-1.59-0.094
		c2.951,1.892,6.454,2.995,10.218,2.995c12.261,0,18.964-10.156,18.964-18.964c0-0.289-0.006-0.577-0.018-0.863
		C61.426,40.779,62.557,39.604,63.45,38.267z"/>
	<path display="none" fill="#010202" d="M55.836,31.337H36.575c-3.346,0-6.068,2.721-6.068,6.067v6.409v12.853
		c0,3.346,2.722,6.067,6.068,6.067h19.262c3.346,0,6.067-2.721,6.067-6.067V43.812v-6.409
		C61.903,34.057,59.182,31.337,55.836,31.337z M57.576,34.954l0.694-0.003v0.691v4.631l-5.304,0.017l-0.018-5.321L57.576,34.954z
		 M41.724,43.812c1.006-1.391,2.637-2.304,4.481-2.304s3.475,0.913,4.48,2.304c0.654,0.908,1.046,2.019,1.046,3.222
		c0,3.047-2.481,5.525-5.527,5.525c-3.047,0-5.526-2.479-5.526-5.525C40.679,45.831,41.07,44.72,41.724,43.812z M58.844,56.664
		c0,1.66-1.35,3.008-3.008,3.008H36.575c-1.659,0-3.009-1.348-3.009-3.008V43.812h4.686c-0.405,0.996-0.632,2.083-0.632,3.222
		c0,4.733,3.85,8.586,8.585,8.586c4.734,0,8.584-3.853,8.584-8.586c0-1.139-0.229-2.227-0.633-3.222h4.688V56.664z"/>
	<g>
		<path fill="#010202" d="M64.089,44.108H58.82v-5.267c0-0.402-0.326-0.729-0.727-0.729h-1.5c-0.404,0-0.73,0.327-0.73,0.729v5.267
			h-5.269c-0.401,0-0.729,0.328-0.729,0.73v1.5c0,0.403,0.328,0.729,0.729,0.729h5.269v5.27c0,0.403,0.326,0.729,0.73,0.729h1.5
			c0.401,0,0.727-0.326,0.727-0.729v-5.271h5.269c0.401,0,0.729-0.326,0.729-0.729v-1.5C64.818,44.435,64.49,44.108,64.089,44.108z"
			/>
		<path fill="#010202" d="M46.384,48.727c-1.108-0.785-2.115-1.936-2.133-2.289c0-0.644,0.058-0.952,1.502-2.077
			c1.867-1.462,2.895-3.383,2.895-5.414c0-1.841-0.562-3.477-1.52-4.625h0.743c0.154,0,0.304-0.048,0.427-0.137l2.073-1.502
			c0.257-0.184,0.365-0.513,0.267-0.814c-0.099-0.3-0.377-0.505-0.693-0.505h-9.269c-1.014,0-2.044,0.179-3.056,0.527
			c-3.378,1.165-5.74,4.043-5.74,6.998c0,4.186,3.243,7.359,7.578,7.459c-0.085,0.332-0.128,0.659-0.128,0.979
			c0,0.645,0.163,1.256,0.5,1.847c-0.039,0-0.077,0-0.119,0c-4.132,0-7.862,2.028-9.278,5.045c-0.369,0.785-0.557,1.578-0.557,2.361
			c0,0.762,0.196,1.495,0.579,2.183c0.89,1.592,2.801,2.827,5.384,3.479c1.333,0.337,2.766,0.508,4.254,0.508
			c1.337,0,2.611-0.173,3.789-0.513c3.674-1.067,6.049-3.771,6.049-6.893C49.931,52.349,48.968,50.555,46.384,48.727z
			 M34.678,55.584c0-2.179,2.768-4.09,5.924-4.09h0.085c0.687,0.008,1.356,0.109,1.988,0.303c0.217,0.149,0.426,0.292,0.626,0.429
			c1.462,0.996,2.427,1.653,2.696,2.708c0.063,0.266,0.095,0.532,0.095,0.789c0,2.714-2.023,4.089-6.016,4.089
			C37.048,59.811,34.678,57.955,34.678,55.584z M37.549,34.994c0.493-0.563,1.139-0.861,1.864-0.861l0.082,0.001
			c2.049,0.06,4.009,2.343,4.369,5.089c0.203,1.537-0.14,2.983-0.912,3.864c-0.494,0.565-1.131,0.862-1.886,0.862c0,0,0,0-0.001,0
			h-0.033c-2.007-0.062-4.009-2.432-4.367-5.174C36.463,37.243,36.786,35.865,37.549,34.994z"/>
	</g>
</g>
</svg>
