<?xml version="1.0" encoding="utf-8"?>
<!-- Generator: Adobe Illustrator 17.0.0, SVG Export Plug-In . SVG Version: 6.00 Build 0)  -->
<!DOCTYPE svg PUBLIC "-//W3C//DTD SVG 1.1//EN" "http://www.w3.org/Graphics/SVG/1.1/DTD/svg11.dtd">
<svg version="1.1" xmlns="http://www.w3.org/2000/svg" xmlns:xlink="http://www.w3.org/1999/xlink" x="0px" y="0px"
	 width="94.109px" height="94.078px" viewBox="0 0 94.109 94.078" enable-background="new 0 0 94.109 94.078" xml:space="preserve">
<g id="Слой_1__x28_копия_x29_">
	<path fill="none" stroke="#000000" stroke-width="2" stroke-miterlimit="10" d="M47.099,92.628L1.505,47.034L47.099,1.44
		l45.594,45.594L47.099,92.628z"/>
	<path display="none" fill="#010202" d="M49.578,39.451h7.313l-0.51,6.382h-6.803v22.174h-8.593V45.834h-4.586v-6.382h4.586v-4.289
		c0-1.887,0.05-4.805,1.477-6.611c1.504-1.91,3.569-3.209,7.116-3.209c5.783,0,8.221,0.791,8.221,0.791l-1.147,6.537
		c0,0-1.91-0.532-3.694-0.532c-1.783,0-3.38,0.612-3.38,2.329L49.578,39.451L49.578,39.451z"/>
</g>
<g id="Слой_1">
	<path display="none" fill="none" stroke="#000000" stroke-miterlimit="10" d="M47.099,92.628L1.505,47.034L47.099,1.44
		l45.594,45.594L47.099,92.628z"/>
	<path fill="#010202" d="M49.655,42.142h4.59l-0.32,4.006h-4.27v13.917h-5.393V46.147h-2.878v-4.006h2.878v-2.692
		c0-1.184,0.031-3.015,0.927-4.149c0.944-1.199,2.24-2.014,4.466-2.014c3.629,0,5.16,0.497,5.16,0.497l-0.72,4.103
		c0,0-1.199-0.334-2.318-0.334c-1.119,0-2.121,0.384-2.121,1.462L49.655,42.142L49.655,42.142z"/>
</g>
</svg>
