<?xml version="1.0" encoding="utf-8"?>
<!-- Generator: Adobe Illustrator 17.0.0, SVG Export Plug-In . SVG Version: 6.00 Build 0)  -->
<!DOCTYPE svg PUBLIC "-//W3C//DTD SVG 1.1//EN" "http://www.w3.org/Graphics/SVG/1.1/DTD/svg11.dtd">
<svg version="1.1" id="Слой_1" xmlns="http://www.w3.org/2000/svg" xmlns:xlink="http://www.w3.org/1999/xlink" x="0px" y="0px"
	 viewBox="0 0 76.3 10.663" enable-background="new 0 0 76.3 10.663" xml:space="preserve" fill="#fec601">
<path fill-rule="evenodd" clip-rule="evenodd" d="M1.479,10.676l-1.377-1.45l8.732-8.289l1.377,1.45L1.479,10.676"/>
<path fill-rule="evenodd" clip-rule="evenodd" d="M8.813,0.937l8.732,8.289l-1.377,1.45L7.436,2.387L8.813,0.937"/>
<path fill-rule="evenodd" clip-rule="evenodd" d="M16.183,10.676l-1.377-1.45l8.732-8.289l1.377,1.45L16.183,10.676"/>
<path fill-rule="evenodd" clip-rule="evenodd" d="M23.516,0.937l8.732,8.289l-1.377,1.45l-8.732-8.289L23.516,0.937"/>
<path fill-rule="evenodd" clip-rule="evenodd" d="M30.854,10.676l-1.377-1.45l8.732-8.289l1.377,1.45L30.854,10.676"/>
<path fill-rule="evenodd" clip-rule="evenodd" d="M38.188,0.937l8.732,8.289l-1.377,1.45l-8.732-8.289L38.188,0.937"/>
<path fill-rule="evenodd" clip-rule="evenodd" d="M45.558,10.676l-1.377-1.45l8.732-8.289l1.377,1.45L45.558,10.676"/>
<path fill-rule="evenodd" clip-rule="evenodd" d="M52.891,0.937l8.732,8.289l-1.377,1.45l-8.732-8.289L52.891,0.937"/>
<path fill-rule="evenodd" clip-rule="evenodd" d="M60.235,10.676l-1.377-1.45l8.732-8.289l1.377,1.45L60.235,10.676"/>
<path fill-rule="evenodd" clip-rule="evenodd" d="M67.568,0.937L76.3,9.226l-1.377,1.45l-8.732-8.289L67.568,0.937"/>
<path display="none" fill-rule="evenodd" clip-rule="evenodd" d="M15.331,10.661l1.416-1.287L9.161,0.666L7.745,1.953L15.331,10.661
	"/>
</svg>
