<?xml version="1.0" encoding="utf-8"?>
<!-- Generator: Adobe Illustrator 17.0.0, SVG Export Plug-In . SVG Version: 6.00 Build 0)  -->
<!DOCTYPE svg PUBLIC "-//W3C//DTD SVG 1.1//EN" "http://www.w3.org/Graphics/SVG/1.1/DTD/svg11.dtd">
<svg version="1.1" id="Слой_1" xmlns="http://www.w3.org/2000/svg" xmlns:xlink="http://www.w3.org/1999/xlink" x="0px" y="0px"
	 width="9.739px" height="73.484px" viewBox="33.332 -30.95 9.739 73.484" enable-background="new 33.332 -30.95 9.739 73.484"
	 xml:space="preserve" fill='#2b2968'>
	<path d="M33.332-30.916l1.45-1.377l8.289,8.732l-1.45,1.377L33.332-30.916"/>
	<path d="M43.07-23.582l-8.289,8.732l-1.45-1.377l8.289-8.732L43.07-23.582"/>
	<path d="M33.332-16.212l1.45-1.377l8.289,8.732l-1.45,1.377L33.332-16.212"/>
	<path d="M43.07-8.879l-8.289,8.732l-1.45-1.377l8.289-8.732L43.07-8.879"/>
	<path d="M33.332-1.541l1.45-1.377l8.289,8.732l-1.45,1.377L33.332-1.541"/>
	<path d="M43.07,5.793l-8.289,8.732l-1.45-1.377l8.289-8.732L43.07,5.793"/>
	<path d="M33.332,13.163l1.45-1.377l8.289,8.732l-1.45,1.377L33.332,13.163"/>
	<path d="M43.07,20.496l-8.289,8.732l-1.45-1.377l8.289-8.732L43.07,20.496"/>
	<path d="M33.332,27.84l1.45-1.377l8.289,8.732l-1.45,1.377L33.332,27.84"/>
	<path d="M43.07,35.174l-8.289,8.732l-1.45-1.377l8.289-8.732L43.07,35.174"/>
</svg>
