<?xml version="1.0" encoding="utf-8"?>
<!-- Generator: Adobe Illustrator 17.0.0, SVG Export Plug-In . SVG Version: 6.00 Build 0)  -->
<!DOCTYPE svg PUBLIC "-//W3C//DTD SVG 1.1//EN" "http://www.w3.org/Graphics/SVG/1.1/DTD/svg11.dtd">
<svg version="1.1" id="Слой_1" xmlns="http://www.w3.org/2000/svg" xmlns:xlink="http://www.w3.org/1999/xlink" x="0px" y="0px"
	 width="76.3px" height="10.663px" viewBox="0 0 76.3 10.663" enable-background="new 0 0 76.3 10.663" xml:space="preserve">
<path fill-rule="evenodd" clip-rule="evenodd" d="M1.479,10.676l-1.377-1.45l8.732-8.289l1.377,1.45L1.479,10.676"/>
<path fill-rule="evenodd" clip-rule="evenodd" d="M8.813,0.937l8.732,8.289l-1.377,1.45L7.436,2.387L8.813,0.937"/>
<path fill-rule="evenodd" clip-rule="evenodd" d="M16.183,10.676l-1.377-1.45l8.732-8.289l1.377,1.45L16.183,10.676"/>
<path fill-rule="evenodd" clip-rule="evenodd" d="M23.516,0.937l8.732,8.289l-1.377,1.45l-8.732-8.289L23.516,0.937"/>
<path fill-rule="evenodd" clip-rule="evenodd" d="M30.854,10.676l-1.377-1.45l8.732-8.289l1.377,1.45L30.854,10.676"/>
<path fill-rule="evenodd" clip-rule="evenodd" d="M38.188,0.937l8.732,8.289l-1.377,1.45l-8.732-8.289L38.188,0.937"/>
<path fill-rule="evenodd" clip-rule="evenodd" d="M45.558,10.676l-1.377-1.45l8.732-8.289l1.377,1.45L45.558,10.676"/>
<path fill-rule="evenodd" clip-rule="evenodd" d="M52.891,0.937l8.732,8.289l-1.377,1.45l-8.732-8.289L52.891,0.937"/>
<path fill-rule="evenodd" clip-rule="evenodd" d="M60.235,10.676l-1.377-1.45l8.732-8.289l1.377,1.45L60.235,10.676"/>
<path fill-rule="evenodd" clip-rule="evenodd" d="M67.568,0.937L76.3,9.226l-1.377,1.45l-8.732-8.289L67.568,0.937"/>
<path display="none" fill-rule="evenodd" clip-rule="evenodd" d="M15.331,10.661l1.416-1.287L9.161,0.666L7.745,1.953L15.331,10.661
	"/>
<polygon display="none" fill-rule="evenodd" clip-rule="evenodd" points="24.271,2.642 15.286,10.656 13.952,9.172 22.937,1.157 "/>
<path display="none" fill-rule="evenodd" clip-rule="evenodd" d="M30.327,10.663l1.417-1.286l-7.582-8.713L22.745,1.95
	L30.327,10.663"/>
<path display="none" fill-rule="evenodd" clip-rule="evenodd" d="M31.491,10.327l-1.495-1.328L37.995,0l1.495,1.329L31.491,10.327"
	/>
<path display="none" fill-rule="evenodd" clip-rule="evenodd" d="M45.325,10.663l1.417-1.286L39.16,0.664L37.743,1.95L45.325,10.663
	"/>
<path display="none" fill-rule="evenodd" clip-rule="evenodd" d="M46.489,10.327l-1.495-1.328L52.993,0l1.495,1.329L46.489,10.327"
	/>
<path display="none" fill-rule="evenodd" clip-rule="evenodd" d="M60.323,10.663l1.417-1.286l-7.582-8.713L52.741,1.95
	L60.323,10.663"/>
<path display="none" fill-rule="evenodd" clip-rule="evenodd" d="M61.487,10.327l-1.495-1.328L67.992,0l1.495,1.329L61.487,10.327"
	/>
<path display="none" fill-rule="evenodd" clip-rule="evenodd" d="M75.321,10.663l1.417-1.286l-7.582-8.713L67.739,1.95
	L75.321,10.663"/>
<path display="none" fill-rule="evenodd" clip-rule="evenodd" d="M20.727,0.014L13.14,8.723l1.416,1.287l7.587-8.709L20.727,0.014"
	/>
<polygon display="none" fill-rule="evenodd" clip-rule="evenodd" points="29.667,8.034 20.682,0.019 19.348,1.504 28.333,9.519 "/>
<path display="none" fill-rule="evenodd" clip-rule="evenodd" d="M35.723,0.013L28.14,8.726l1.417,1.286l7.582-8.712L35.723,0.013"
	/>
<path display="none" fill-rule="evenodd" clip-rule="evenodd" d="M36.887,0.349l7.999,8.999l-1.495,1.328l-7.999-8.999L36.887,0.349
	"/>
<path display="none" fill-rule="evenodd" clip-rule="evenodd" d="M50.721,0.013l-7.582,8.713l1.417,1.286l7.582-8.712L50.721,0.013"
	/>
<path display="none" fill-rule="evenodd" clip-rule="evenodd" d="M51.885,0.349l7.999,8.999l-1.495,1.328L50.39,1.677L51.885,0.349"
	/>
<path display="none" fill-rule="evenodd" clip-rule="evenodd" d="M65.719,0.013l-7.582,8.713l1.417,1.286l7.582-8.712L65.719,0.013"
	/>
<path display="none" fill-rule="evenodd" clip-rule="evenodd" d="M66.883,0.349l7.999,8.999l-1.495,1.328l-7.999-8.999L66.883,0.349
	"/>
<path display="none" fill-rule="evenodd" clip-rule="evenodd" d="M80.717,10.663l1.417-1.286l-7.582-8.713L73.135,1.95
	L80.717,10.663"/>
</svg>
