<?xml version="1.0" encoding="utf-8"?>
<!-- Generator: Adobe Illustrator 17.0.0, SVG Export Plug-In . SVG Version: 6.00 Build 0)  -->
<!DOCTYPE svg PUBLIC "-//W3C//DTD SVG 1.1//EN" "http://www.w3.org/Graphics/SVG/1.1/DTD/svg11.dtd">
<svg version="1.1" xmlns="http://www.w3.org/2000/svg" xmlns:xlink="http://www.w3.org/1999/xlink" x="0px" y="0px"
	 width="94.109px" height="94.078px" viewBox="0 0 94.109 94.078" enable-background="new 0 0 94.109 94.078" xml:space="preserve">
<g id="Слой_1__x28_копия_x29_">
	<path fill="none" stroke="#000000" stroke-width="2" stroke-miterlimit="10" d="M47.099,92.628L1.505,47.034L47.099,1.44
		l45.594,45.594L47.099,92.628z"/>
	<path display="none" fill="#010202" d="M49.578,39.451h7.313l-0.51,6.382h-6.803v22.174h-8.593V45.834h-4.586v-6.382h4.586v-4.289
		c0-1.887,0.05-4.805,1.477-6.611c1.504-1.91,3.569-3.209,7.116-3.209c5.783,0,8.221,0.791,8.221,0.791l-1.147,6.537
		c0,0-1.91-0.532-3.694-0.532c-1.783,0-3.38,0.612-3.38,2.329L49.578,39.451L49.578,39.451z"/>
</g>
<g id="Слой_1">
	<path display="none" fill="none" stroke="#000000" stroke-miterlimit="10" d="M47.099,92.628L1.505,47.034L47.099,1.44
		l45.594,45.594L47.099,92.628z"/>
	<path display="none" fill="#010202" d="M49.655,42.142h4.59l-0.32,4.006h-4.27v13.917h-5.393V46.147h-2.878v-4.006h2.878v-2.692
		c0-1.184,0.031-3.015,0.927-4.149c0.944-1.199,2.24-2.014,4.466-2.014c3.629,0,5.16,0.497,5.16,0.497l-0.72,4.103
		c0,0-1.199-0.334-2.318-0.334c-1.119,0-2.121,0.384-2.121,1.462L49.655,42.142L49.655,42.142z"/>
	<path fill="#010202" d="M63.45,38.267c-1.194,0.531-2.48,0.889-3.828,1.049c1.377-0.824,2.433-2.13,2.931-3.688
		c-1.288,0.764-2.714,1.319-4.233,1.618c-1.215-1.295-2.948-2.105-4.865-2.105c-3.681,0-6.665,2.984-6.665,6.665
		c0,0.522,0.059,1.03,0.173,1.519c-5.54-0.278-10.452-2.931-13.739-6.964c-0.574,0.984-0.902,2.129-0.902,3.352
		c0,2.312,1.177,4.353,2.965,5.548c-1.092-0.035-2.12-0.335-3.019-0.834c-0.001,0.028-0.001,0.056-0.001,0.084
		c0,3.229,2.298,5.922,5.347,6.536c-0.559,0.152-1.148,0.233-1.756,0.233c-0.43,0-0.847-0.042-1.254-0.12
		c0.849,2.648,3.31,4.576,6.226,4.629c-2.281,1.788-5.155,2.854-8.278,2.854c-0.537,0-1.068-0.032-1.59-0.094
		c2.951,1.892,6.454,2.995,10.218,2.995c12.261,0,18.964-10.156,18.964-18.964c0-0.289-0.006-0.577-0.018-0.863
		C61.426,40.779,62.557,39.604,63.45,38.267z"/>
</g>
</svg>
