<?xml version="1.0" encoding="UTF-8"?><!DOCTYPE svg PUBLIC "-//W3C//DTD SVG 1.1//EN" "http://www.w3.org/Graphics/SVG/1.1/DTD/svg11.dtd"><svg xmlns="http://www.w3.org/2000/svg"><symbol id="arrow left" viewBox="0 0 41.968 41.968"><path fill-rule="evenodd" clip-rule="evenodd" d="M41.968 19.97v2H11.972v-2h29.996"/><path fill="none" stroke="#000" stroke-width="2" stroke-miterlimit="10" d="M1.972 20.97l16.998-10V30.97L1.972 20.97z"/></symbol><symbol id="arrow right" viewBox="0 0 42.067 41.968"><path fill-rule="evenodd" clip-rule="evenodd" d="M.097 20.97v-2h29.996v2H.097"/><path fill="none" stroke="#000" stroke-width="2" stroke-miterlimit="10" d="M40.093 19.97l-16.998 10V9.97l16.998 9.998z"/></symbol><symbol id="arrow up" viewBox="0 0 23.494 41.968"><path fill-rule="evenodd" clip-rule="evenodd" d="M12.748 41.968h-2V11.972h2v29.996"/><path fill="none" stroke="#000" stroke-width="2" stroke-miterlimit="10" d="M11.747 1.972l10 16.998h-20l10-16.998z"/></symbol><symbol id="close" viewBox="0 0 32 32"><path d="M4 8l4-4 8 8 8-8 4 4-8 8 8 8-4 4-8-8-8 8-4-4 8-8z"/></symbol><symbol id="line-banner" viewBox="0 0 16 2"><path fill-rule="evenodd" fill="#fecc1a" clip-rule="evenodd" d="M0 2V0h8v2H0z"/></symbol><symbol id="marker" viewBox="0 0 24 24"><g fill="none" fill-rule="evenodd"><path d="M8.5 23S16 13.128 16 8.813C16 4.498 13.52 1 8.5 1S1 4.498 1 8.813C1 13.128 8.5 23 8.5 23zm0-11.5c2.21 0 4-1.79 4-4s-1.79-4-4-4-4 1.79-4 4 1.79 4 4 4z" fill="#fecc1a"/></g></symbol><symbol id="menu" viewBox="0 0 29 22"><g fill="#231F20"><path d="M0 0h29v4H0z"/><path class="middle__path" d="M0 9h29v4H0z"/><path d="M0 18h29v4H0z"/></g></symbol><symbol id="pin" viewBox="0 0 60 60"><g fill="none" fill-rule="evenodd"><path d="M.308 12.385c0 6.373 11.538 21.278 11.538 20.873 0-.404 11.54-14.5 11.54-20.873 0-6.373-5.17-11.54-11.54-11.54C5.476.846.308 6.013.308 12.386zm5.77-1.154c0 3.187 2.584 5.77 5.768 5.77 3.185 0 5.77-2.583 5.77-5.77 0-3.186-2.585-5.768-5.77-5.768-3.184 0-5.77 2.582-5.77 5.77z" fill="#000"/></g></symbol><symbol id="social fb" viewBox="0 0 94.109 94.078"><path fill="none" stroke="#000" stroke-width="2" stroke-miterlimit="10" d="M47.1 92.628L1.504 47.034 47.1 1.44l45.593 45.594L47.1 92.628z"/><path fill="#010202" d="M49.655 42.142h4.59l-.32 4.006h-4.27v13.917h-5.393V46.147h-2.878V42.14h2.878v-2.69c0-1.185.03-3.016.927-4.15.943-1.2 2.24-2.014 4.465-2.014 3.63 0 5.16.497 5.16.497l-.72 4.103s-1.2-.334-2.318-.334c-1.12 0-2.12.384-2.12 1.462l-.002 3.128z"/></symbol><symbol id="social g" viewBox="0 0 94.109 94.078"><path fill="none" stroke="#000" stroke-width="2" stroke-miterlimit="10" d="M47.1 92.628L1.504 47.034 47.1 1.44l45.593 45.594L47.1 92.628z"/><g fill="#010202"><path d="M64.09 44.108h-5.27V38.84c0-.4-.326-.728-.727-.728h-1.5c-.404 0-.73.327-.73.73v5.266h-5.27c-.4 0-.728.328-.728.73v1.5c0 .403.328.73.73.73h5.268v5.27c0 .402.326.728.73.728h1.5c.4 0 .727-.326.727-.73v-5.27h5.27c.4 0 .728-.326.728-.73v-1.5c0-.4-.328-.728-.73-.728z"/><path d="M46.384 48.727c-1.108-.785-2.115-1.936-2.133-2.29 0-.643.06-.95 1.503-2.076 1.867-1.46 2.895-3.382 2.895-5.413 0-1.84-.562-3.477-1.52-4.625h.743c.155 0 .305-.048.428-.137l2.073-1.502c.258-.184.366-.513.268-.814-.1-.3-.377-.506-.693-.506h-9.27c-1.013 0-2.043.18-3.055.527-3.378 1.166-5.74 4.044-5.74 7 0 4.185 3.243 7.358 7.578 7.458-.085.332-.128.66-.128.98 0 .644.163 1.255.5 1.846h-.12c-4.13 0-7.86 2.028-9.277 5.045-.37.784-.557 1.577-.557 2.36 0 .762.196 1.495.58 2.183.89 1.592 2.8 2.827 5.383 3.48 1.332.336 2.765.507 4.253.507 1.337 0 2.61-.173 3.79-.513 3.673-1.067 6.048-3.77 6.048-6.893 0-2.995-.962-4.79-3.546-6.617zm-11.706 6.857c0-2.18 2.768-4.09 5.924-4.09h.085c.687.008 1.356.11 1.988.303l.626.43c1.463.995 2.428 1.652 2.697 2.707.063.266.095.532.095.79 0 2.713-2.023 4.088-6.016 4.088-3.028 0-5.398-1.857-5.398-4.228zm2.87-20.59c.494-.563 1.14-.86 1.865-.86h.082c2.05.06 4.01 2.343 4.37 5.09.202 1.536-.14 2.982-.913 3.863-.494.565-1.13.862-1.886.862h-.034c-2.007-.063-4.01-2.433-4.367-5.175-.202-1.532.12-2.91.884-3.78z"/></g></symbol><symbol id="social insta" viewBox="0 0 94.109 94.078"><path fill="none" stroke="#000" stroke-width="2" stroke-miterlimit="10" d="M47.1 92.628L1.504 47.034 47.1 1.44l45.593 45.594L47.1 92.628z"/><path fill="#010202" d="M55.836 31.337h-19.26c-3.347 0-6.07 2.72-6.07 6.067v19.262c0 3.346 2.723 6.067 6.07 6.067h19.26c3.347 0 6.068-2.72 6.068-6.067V37.402c0-3.345-2.722-6.065-6.068-6.065zm1.74 3.617l.694-.003v5.322l-5.304.018-.018-5.32 4.628-.016zm-15.852 8.858c1.006-1.39 2.637-2.304 4.48-2.304s3.476.913 4.48 2.304c.655.908 1.047 2.02 1.047 3.222 0 3.047-2.48 5.525-5.526 5.525-3.047 0-5.526-2.48-5.526-5.526 0-1.203.392-2.314 1.046-3.222zm17.12 12.852c0 1.66-1.35 3.008-3.008 3.008h-19.26c-1.66 0-3.01-1.348-3.01-3.008V43.812h4.686c-.405.996-.632 2.083-.632 3.222 0 4.733 3.85 8.586 8.585 8.586 4.734 0 8.584-3.853 8.584-8.586 0-1.14-.23-2.227-.634-3.222h4.688v12.852z"/></symbol><symbol id="social tw" viewBox="0 0 94.109 94.078"><path fill="none" stroke="#000" stroke-width="2" stroke-miterlimit="10" d="M47.1 92.628L1.504 47.034 47.1 1.44l45.593 45.594L47.1 92.628z"/><path fill="#010202" d="M63.45 38.267c-1.194.53-2.48.89-3.828 1.05 1.377-.825 2.433-2.13 2.93-3.69-1.287.765-2.713 1.32-4.232 1.62-1.215-1.296-2.948-2.106-4.865-2.106-3.68 0-6.665 2.985-6.665 6.666 0 .522.06 1.03.173 1.52-5.54-.28-10.452-2.932-13.74-6.965-.573.985-.9 2.13-.9 3.353 0 2.312 1.176 4.353 2.964 5.548-1.092-.034-2.12-.334-3.02-.833v.084c0 3.23 2.298 5.923 5.347 6.537-.56.152-1.148.233-1.756.233-.43 0-.847-.042-1.254-.12.85 2.648 3.31 4.576 6.226 4.63-2.28 1.787-5.155 2.853-8.278 2.853-.537 0-1.068-.032-1.59-.094 2.95 1.89 6.454 2.994 10.218 2.994 12.26 0 18.964-10.156 18.964-18.964 0-.29-.006-.577-.018-.863 1.3-.938 2.43-2.113 3.324-3.45z"/></symbol><symbol id="zigzag" viewBox="0 0 76.3 10.663"><path fill-rule="evenodd" clip-rule="evenodd" d="M1.48 10.676L.1 9.226 8.834.936l1.377 1.45-8.73 8.29"/><path fill-rule="evenodd" clip-rule="evenodd" d="M8.813.937l8.732 8.29-1.377 1.45-8.732-8.29L8.813.937"/><path fill-rule="evenodd" clip-rule="evenodd" d="M16.183 10.676l-1.377-1.45 8.732-8.29 1.377 1.45-8.732 8.29"/><path fill-rule="evenodd" clip-rule="evenodd" d="M23.516.937l8.732 8.29-1.377 1.45-8.73-8.29 1.376-1.45"/><path fill-rule="evenodd" clip-rule="evenodd" d="M30.854 10.676l-1.377-1.45L38.21.936l1.376 1.45-8.732 8.29"/><path fill-rule="evenodd" clip-rule="evenodd" d="M38.188.937l8.732 8.29-1.377 1.45-8.732-8.29L38.19.937"/><path fill-rule="evenodd" clip-rule="evenodd" d="M45.558 10.676l-1.377-1.45 8.733-8.29 1.377 1.45-8.732 8.29"/><path fill-rule="evenodd" clip-rule="evenodd" d="M52.89.937l8.733 8.29-1.377 1.45-8.732-8.29L52.89.937"/><path fill-rule="evenodd" clip-rule="evenodd" d="M60.235 10.676l-1.377-1.45L67.59.936l1.377 1.45-8.732 8.29"/><path fill-rule="evenodd" clip-rule="evenodd" d="M67.568.937l8.732 8.29-1.377 1.45-8.732-8.29L67.57.937"/></symbol></svg>