<?xml version="1.0" encoding="UTF-8"?><!DOCTYPE svg PUBLIC "-//W3C//DTD SVG 1.1//EN" "http://www.w3.org/Graphics/SVG/1.1/DTD/svg11.dtd"><svg xmlns="http://www.w3.org/2000/svg" xmlns:xlink="http://www.w3.org/1999/xlink" xmlns:sketch="http://www.bohemiancoding.com/sketch/ns" xmlns:cc="http://creativecommons.org/ns#" xmlns:dc="http://purl.org/dc/elements/1.1/" xmlns:inkscape="http://www.inkscape.org/namespaces/inkscape" xmlns:rdf="http://www.w3.org/1999/02/22-rdf-syntax-ns#" xmlns:sodipodi="http://sodipodi.sourceforge.net/DTD/sodipodi-0.dtd" xmlns:svg="http://www.w3.org/2000/svg"><symbol id="add" viewBox="0 0 48 48"><path d="M38 26h-12v12h-4v-12h-12v-4h12v-12h4v12h12v4z"/></symbol><symbol id="arrow left" viewBox="0 0 41.968 41.968">
<g id="&#x421;&#x43B;&#x43E;&#x439;_1__x28_&#x43A;&#x43E;&#x43F;&#x438;&#x44F;_x29_">
	<path fill-rule="evenodd" clip-rule="evenodd" d="M41.968,19.969v2H11.972v-2H41.968"/>
	<path fill="none" stroke="#000000" stroke-width="2" stroke-miterlimit="10" d="M1.972,20.97l16.998-9.999v19.997L1.972,20.97z"/>
</g>
<g id="&#x421;&#x43B;&#x43E;&#x439;_1" display="none">
	<path display="inline" fill-rule="evenodd" clip-rule="evenodd" d="M22.971,41.968h-2V11.972h2V41.968"/>
	<path display="inline" fill="none" stroke="#000000" stroke-width="2" stroke-miterlimit="10" d="M21.97,1.972l9.999,16.998H11.972
		L21.97,1.972z"/>
</g>
</symbol><symbol id="arrow right" viewBox="0 0 42.067 41.968">
<g id="&#x421;&#x43B;&#x43E;&#x439;_1__x28_&#x43A;&#x43E;&#x43F;&#x438;&#x44F;2_x29_">
	<path fill-rule="evenodd" clip-rule="evenodd" d="M0.097,20.971v-2h29.996v2H0.097"/>
	<path fill="none" stroke="#000000" stroke-width="2" stroke-miterlimit="10" d="M40.093,19.97l-16.998,9.999V9.972L40.093,19.97z"/>
</g>
<g id="&#x421;&#x43B;&#x43E;&#x439;_1__x28_&#x43A;&#x43E;&#x43F;&#x438;&#x44F;_x29_" display="none">
	<path display="inline" fill-rule="evenodd" clip-rule="evenodd" d="M40.093,19.969v2H10.097v-2H40.093"/>
	<path display="inline" fill="none" stroke="#000000" stroke-width="2" stroke-miterlimit="10" d="M0.097,20.97l16.998-9.999v19.997
		L0.097,20.97z"/>
</g>
<g id="&#x421;&#x43B;&#x43E;&#x439;_1" display="none">
	<path display="inline" fill-rule="evenodd" clip-rule="evenodd" d="M21.096,41.968h-2V11.972h2V41.968"/>
	<path display="inline" fill="none" stroke="#000000" stroke-width="2" stroke-miterlimit="10" d="M20.095,1.972l9.999,16.998
		H10.097L20.095,1.972z"/>
</g>
</symbol><symbol id="arrow up" viewBox="0 0 23.494 41.968">
<path fill-rule="evenodd" clip-rule="evenodd" d="M12.748,41.968h-2V11.972h2V41.968"/>
<path fill="none" stroke="#000000" stroke-width="2" stroke-miterlimit="10" d="M11.747,1.972l9.999,16.998H1.748L11.747,1.972z"/>
</symbol><symbol id="arrow-sort" viewBox="0 0 48 48"><path d="M14 20l10 10 10-10z"/></symbol><symbol id="arrow_nav" viewBox="0 0 42 24">
	<path id="fill" fill-rule="evenodd" clip-rule="evenodd" d="m41.968,10.9065v2h-29.996v-2h29.996"/>
	<path id="stroke" fill="none" stroke-width="2" stroke-miterlimit="10" d="m1.972,11.9075l16.998,-9.999v19.997l-16.998,-9.998z"/>
</symbol><symbol id="bird" viewBox="48.1 63.9 415.9 384.1">
<path d="M461.6,109.6l-54.9-43.3c-1.7-1.4-3.8-2.4-6.2-2.4c-2.4,0-4.6,1-6.3,2.5L194.5,323c0,0-78.5-75.5-80.7-77.7
	s-5.1-5.9-9.5-5.9s-6.4,3.1-8.7,5.4c-1.7,1.8-29.7,31.2-43.5,45.8c-0.8,0.9-1.3,1.4-2,2.1c-1.2,1.7-2,3.6-2,5.7c0,2.2,0.8,4,2,5.7
	l2.8,2.6c0,0,139.3,133.8,141.6,136.1s5.1,5.2,9.2,5.2c4,0,7.3-4.3,9.2-6.2l249.1-320c1.2-1.7,2-3.6,2-5.8
	C464,113.5,463,111.4,461.6,109.6z"/>
</symbol><symbol id="calendar" viewBox="1.039 1.272 21 21">
<g id="slice" transform="translate(215.000000, 119.000000)">
</g>
<g>
	<path fill="#003E7E" d="M6.789,5.272h0.499c0.414,0,0.75-0.334,0.75-0.752V2.025c0-0.416-0.335-0.752-0.75-0.752H6.789
		c-0.414,0-0.75,0.334-0.75,0.752V4.52C6.039,4.935,6.373,5.272,6.789,5.272z"/>
	<path fill="#003E7E" d="M16.039,5.272c0.552,0,1-0.447,1-0.999V2.271c0-0.552-0.449-0.999-1-0.999c-0.552,0-1,0.447-1,0.999v2.002
		C15.039,4.825,15.487,5.272,16.039,5.272z"/>
	<path fill="#003E7E" d="M21.41,3.272h-3.371V4.52c0,0.97-0.783,1.752-1.75,1.752h-0.499c-0.968,0-1.75-0.785-1.75-1.752V3.272h-5
		V4.52c0,0.97-0.783,1.752-1.75,1.752H6.789c-0.968,0-1.75-0.785-1.75-1.752V3.272H1.667c-0.347,0-0.629,0.291-0.629,0.649v17.703
		c0,0.358,0.281,0.649,0.628,0.649H21.41c0.347,0,0.628-0.291,0.628-0.649V3.921C22.039,3.563,21.756,3.272,21.41,3.272z
		 M2.01,14.349h3v3h-3V14.349z M2.032,18.251h3v3h-3V18.251z M5.039,13.272h-3v-3h3V13.272z M6.053,14.349h3v3h-3V14.349z
		 M9.074,21.251h-3v-3h3V21.251z M9.081,13.272H9.039H6.081v-3h2.958h0.042V13.272z M10.01,14.349h3v3h-3V14.349z M10.031,18.251h3
		v3h-3V18.251z M13.039,13.272h-3v-3h3V13.272z M14.017,14.349h3v3h-3V14.349z M17.039,18.272v2.979h-3v-2.979v-0.021h3V18.272z
		 M17.046,13.272h-0.007h-2.993v-3h2.993h0.007V13.272z M18.024,14.349h3v3h-3V14.349z M21.046,21.251h-3v-3h3V21.251z
		 M21.053,13.272h-0.014h-2.986v-3h2.986h0.014V13.272z"/>
</g>
</symbol><symbol id="check" viewBox="0 0 16 16">
<polyline fill="none" stroke="#3fa214" stroke-width="2" stroke-linecap="square" stroke-miterlimit="10" points="5,8 7,10 11,6 "/>
</symbol><symbol id="child" viewBox="2.128 0.8 11.744 14.4">
<path d="M9.984,2.768c0,1.088-0.88,1.968-1.968,1.968s-1.968-0.88-1.968-1.968c0-1.088,0.88-1.968,1.968-1.968
	S9.984,1.68,9.984,2.768"/>
<rect x="5.856" y="5.152" width="4.336" height="6.288"/>
<g>
	<g>
		<polygon points="4.64,5.152 4.64,5.152 3.328,6.368 2.384,5.328 3.68,4.112 		"/>
		<polygon points="4.64,5.152 5.472,6.016 4.64,6.944 3.328,6.368 3.472,5.216 		"/>
		<path d="M3.328,6.368L4.64,6.944C3.888,6.944,3.328,6.368,3.328,6.368"/>
		<polygon points="4.64,5.152 4.64,5.152 8.352,5.152 8.352,6.944 4.64,6.944 		"/>
	</g>
</g>
<path d="M3.92,4.72c0,0.496-0.4,0.896-0.896,0.896s-0.896-0.4-0.896-0.896s0.4-0.896,0.896-0.896C3.52,3.824,3.92,4.224,3.92,4.72"/>
<g>
	<g>
		<polygon points="7.648,5.152 7.648,6.944 11.36,6.944 11.36,5.152 11.36,5.152 		"/>
		<polygon points="11.36,5.152 10.64,5.968 11.36,6.944 12.672,6.368 12.576,5.28 		"/>
		<polygon points="11.36,5.152 11.36,5.152 12.672,6.368 13.616,5.328 12.32,4.112 		"/>
		<path d="M12.672,6.368L11.36,6.944C12.112,6.944,12.672,6.368,12.672,6.368"/>
	</g>
</g>
<path d="M12.08,4.72c0,0.496,0.4,0.896,0.896,0.896c0.496,0,0.896-0.4,0.896-0.896s-0.4-0.896-0.896-0.896
	C12.48,3.824,12.08,4.224,12.08,4.72"/>
<path d="M7.632,14.304c0,0.496-0.4,0.896-0.896,0.896S5.84,14.8,5.84,14.304s0.4-0.896,0.896-0.896
	C7.232,13.424,7.632,13.824,7.632,14.304"/>
<rect x="5.856" y="9.552" width="1.776" height="4.752"/>
<g>
	<g>
		<path d="M10.112,14.432c0.016,0.016,0.016,0.016,0.032,0.032l0.016,0.016L10.112,14.432z"/>
		<path d="M10.112,14.432l0.064,0.048l1.168-1.344l-0.064-0.064c-0.368-0.288-0.896-0.24-1.216,0.128
			C9.744,13.568,9.776,14.096,10.112,14.432"/>
		<path d="M9.456,13.856l0.656,0.56c-0.336-0.32-0.368-0.864-0.048-1.232c0.304-0.352,0.848-0.4,1.216-0.128l-0.624-0.544l0,0
			l-0.048,0.016L9.456,13.856z"/>
		<path d="M9.456,13.856L8.992,13.2C8.992,13.2,9.184,13.616,9.456,13.856"/>
		<polygon points="8.992,13.2 9.456,13.856 10.48,13.248 10.64,12.528 10.496,12.288 9.664,12.608 		"/>
		<path d="M11.328,13.136L10.16,14.48c0.368,0.304,0.912,0.256,1.232-0.112c0.32-0.368,0.288-0.928-0.096-1.264
			c-0.016-0.016-0.032-0.032-0.048-0.032L11.328,13.136z"/>
		<polygon points="7.2,8.784 8.992,13.2 10.592,12.544 10.624,12.512 10.64,12.528 8.848,8.128 		"/>
		<polygon points="10.592,12.544 10.64,12.528 10.64,12.528 10.624,12.512 		"/>
	</g>
</g>
</symbol><symbol id="clock" viewBox="0 0 512 512"><polygon points="288,224 288,128 224,128 224,288 352,288 352,224 "/><path d="M256,0C114.625,0,0,114.625,0,256s114.625,256,256,256s256-114.625,256-256S397.375,0,256,0z M256,448  c-106.031,0-192-85.969-192-192S149.969,64,256,64c106.03,0,192,85.969,192,192S362.031,448,256,448z"/></symbol><symbol id="close" viewBox="0 0 32 32">
	<path d="M4 8 L8 4 L16 12 L24 4 L28 8 L20 16 L28 24 L24 28 L16 20 L8 28 L4 24 L12 16 z"/>
</symbol><symbol id="comment" viewBox="0 1.642 16 12.715">
<g id="chat">
	<path d="M0,14.358l2.169-4.549C1.508,8.957,1.173,7.961,1.173,6.846c0-1.63,0.823-2.993,2.379-3.942
		C4.886,2.09,6.673,1.642,8.584,1.642c2.515,0,4.803,0.787,6.119,2.106C15.566,4.612,16.002,5.657,16,6.854
		c-0.003,1.737-0.824,3.192-2.373,4.208c-1.336,0.876-3.127,1.359-5.041,1.359c-1.154,0-2.293-0.181-3.305-0.525
		c-1.678,0.644-4.262,1.947-4.289,1.961L0,14.358z M8.584,2.402c-1.774,0-3.421,0.408-4.637,1.15
		c-0.919,0.56-2.015,1.587-2.015,3.293c0,1.015,0.327,1.911,0.971,2.662l0.161,0.188l-1.429,2.997
		c0.96-0.465,2.426-1.153,3.508-1.557l0.13-0.049l0.131,0.047c0.963,0.345,2.063,0.527,3.182,0.527c1.768,0,3.41-0.438,4.624-1.235
		c0.924-0.606,2.027-1.718,2.03-3.574c0.002-0.988-0.36-1.852-1.074-2.568C12.989,3.106,10.903,2.402,8.584,2.402z"/>
</g>
<g id="&#x421;&#x43B;&#x43E;&#x439;_1_1_">
</g>
</symbol><symbol id="document_text" viewBox="0 0 24 32">
<g id="background">
	<rect fill="none" width="32" height="32"/>
</g>
<g id="document_x5F_text">
	<polygon points="4,22 4,20 16,20 16,22 	"/>
	<polygon points="4,14 4,12 20,12 20,14 	"/>
	<polygon points="4,18 4,16 20,16 20,18 	"/>
	<path d="M18.414,0H0v32h24V5.584L18.414,0z M17.998,2.413L21.586,6h-3.588C17.998,6,17.998,2.413,17.998,2.413z M2,30V1.998h14
		v6.001h6V30H2z"/>
</g>
</symbol><symbol id="down" viewBox="2.75 12.914 44.5 24.336">
<rect y="1.833" fill="none" width="50" height="50"/>
<polygon points="47.25,15 45.164,12.914 25,33.078 4.836,12.914 2.75,15 25,37.25 "/>
</symbol><symbol id="exit" viewBox="0 0 141.732 141.732"><g id="Livello_34"><path d="M108.527,66.186l-42.209-42.21c-2.498-2.494-6.547-2.494-9.046,0c-2.495,2.498-2.495,6.547,0,9.045L88.996,64.74H6.365   c-3.532,0-6.398,2.869-6.398,6.398c0,3.53,2.867,6.396,6.398,6.396h82.629L57.7,108.829c-2.495,2.493-2.495,6.548,0,9.041   c2.499,2.498,6.55,2.498,9.046,0l42.208-42.21c0.149-0.147,0.291-0.305,0.425-0.468c0.064-0.071,0.11-0.147,0.169-0.229   c0.067-0.091,0.145-0.181,0.203-0.277c0.06-0.093,0.111-0.185,0.169-0.275c0.051-0.087,0.104-0.169,0.151-0.26   c0.05-0.095,0.094-0.192,0.139-0.289c0.045-0.093,0.091-0.184,0.13-0.277c0.039-0.095,0.068-0.191,0.104-0.283   c0.038-0.106,0.076-0.201,0.107-0.304c0.025-0.102,0.049-0.194,0.073-0.291c0.025-0.106,0.058-0.21,0.075-0.318   c0.021-0.108,0.035-0.225,0.054-0.339c0.015-0.094,0.03-0.186,0.041-0.276c0.041-0.42,0.041-0.842,0-1.261   c-0.011-0.096-0.026-0.188-0.041-0.278c-0.019-0.113-0.029-0.229-0.054-0.337c-0.021-0.108-0.05-0.212-0.075-0.319   c-0.024-0.097-0.048-0.191-0.073-0.291c-0.031-0.102-0.069-0.199-0.107-0.304c-0.029-0.095-0.062-0.191-0.104-0.286   c-0.04-0.095-0.085-0.186-0.13-0.277c-0.045-0.098-0.089-0.196-0.139-0.291c-0.051-0.089-0.105-0.172-0.151-0.258   c-0.058-0.094-0.109-0.187-0.169-0.278c-0.062-0.095-0.136-0.184-0.203-0.275c-0.059-0.077-0.104-0.154-0.169-0.228   c-0.197-0.243-0.423-0.466-0.657-0.678C108.659,66.333,108.595,66.257,108.527,66.186 M141.732,141.846V-0.001H65.353v10.912   h65.469v120.024H65.353v10.907h76.379V141.846z"/></g><g id="Livello_1_1_"/></symbol><symbol id="eye" viewBox="32 128 448 256">
<g>
	<path d="M256,128c-81.9,0-145.7,48.8-224,128c67.4,67.7,124,128,224,128c99.9,0,173.4-76.4,224-126.6
		C428.2,198.6,354.8,128,256,128z M256,347.3c-49.4,0-89.6-41-89.6-91.3c0-50.4,40.2-91.3,89.6-91.3s89.6,41,89.6,91.3
		C345.6,306.4,305.4,347.3,256,347.3z"/>
	<g>
		<path d="M256,224c0-7.9,2.9-15.1,7.6-20.7c-2.5-0.4-5-0.6-7.6-0.6c-28.8,0-52.3,23.9-52.3,53.3s23.5,53.3,52.3,53.3
			s52.3-23.9,52.3-53.3c0-2.3-0.2-4.6-0.4-6.9c-5.5,4.3-12.3,6.9-19.8,6.9C270.3,256,256,241.7,256,224z"/>
	</g>
</g>
</symbol><symbol id="file">

 <g>
  <title>background</title>
  <rect fill="none" id="canvas_background" height="48.1" width="36.2" y="-1" x="-1"/>
 </g>
 <g>
  <title>Layer 1</title>
  <path id="svg_1" fill-rule="evenodd" d="m30.113194,46.039574l-26.000236,0c-2.208981,0 -3.999969,-1.791 -3.999969,-4l0,-38.000024c0,-2.209 1.790988,-4.000001 3.999969,-4.000001l18.972999,0c0.001999,0 0.005001,0 0.007,0l0.02,0l0,0c0.320011,0 0.593023,0.161 0.776028,0.395l9.829273,9.828993c0.235001,0.183 0.395,0.456 0.395,0.776l0,0l0,0.021c0,0.002 0,0.003 0,0.005l0,30.974032c0,2.209 -1.791,4 -4.000065,4zm-6.000202,-42.619024l0,6.618992l6.619223,0l-6.619223,-6.618992zm8.000267,8.618992l-9.000301,0c-0.55302,0 -1.000032,-0.448 -1.000032,-1l0,-8.999992l-17.999967,0c-1.103991,0 -1.999983,0.896 -1.999983,2l0,38.000024c0,1.104 0.895992,2 1.999983,2l26.000236,0c1.104038,0 2.000065,-0.896 2.000065,-2l0,-30.000032zm-6.0002,26.000032l-18.000134,0c-0.552998,0 -0.999992,-0.446999 -0.999992,-1c0,-0.551998 0.446995,-1 0.999992,-1l18.000134,0c0.55302,0 1.000034,0.448002 1.000034,1c0,0.553001 -0.447014,1 -1.000034,1zm0,-8.000032l-18.000134,0c-0.552998,0 -0.999992,-0.447001 -0.999992,-1c0,-0.552 0.446995,-1 0.999992,-1l18.000134,0c0.55302,0 1.000034,0.448 1.000034,1c0,0.552999 -0.447014,1 -1.000034,1zm0,-8l-18.000134,0c-0.552998,0 -0.999992,-0.447001 -0.999992,-1c0,-0.552 0.446995,-1 0.999992,-1l18.000134,0c0.55302,0 1.000034,0.448 1.000034,1c0,0.552999 -0.447014,1 -1.000034,1z" clip-rule="evenodd"/>
 </g>
</symbol><symbol id="finish_flag" viewBox="-14.641 25.307 29 15.193">
<g id="Layer_1__x28_&#x43A;&#x43E;&#x43F;&#x438;&#x44F;_x29_">
	
		<line fill="none" stroke="#000000" stroke-linecap="round" stroke-linejoin="round" stroke-miterlimit="10" x1="-4.387" y1="25.807" x2="2.323" y2="40"/>
	<path fill="none" stroke="#000000" stroke-linecap="round" stroke-linejoin="round" stroke-miterlimit="10" d="M-0.741,33.522
		c0,0-2.296-0.037-3.497,1.165c-1.267,1.267-1.218,2.079-2.152,3.014c-0.935,0.935-2.153,1.292-2.153,1.292l-5.597-5.597
		c0,0,1.908-0.186,2.998-1.276c1.091-1.091,0.833-2.556,2.155-3.877c2.171-2.171,4.776-2.066,4.776-2.066L-0.741,33.522z"/>
	<path d="M-4.171,26.263l1.057,2.26c-1.368,0.042-2.543,0.596-2.543,0.596l-1.049-2.387c1.158-0.593,2.493-0.555,2.493-0.555"/>
	<path d="M-7.542,30.438c-0.182,0.182-0.31,0.351-0.31,0.351l1.446,2.493c0,0,0.33-0.444,0.72-0.835
		c0.391-0.391,1.159-0.756,1.159-0.756l-1.131-2.573C-5.656,29.118-6.668,29.564-7.542,30.438z"/>
	<path d="M-4.526,31.692l1.096,2.442c1.033-0.577,2.688-0.612,2.688-0.612l-1.125-2.347C-1.866,31.175-3.452,31.215-4.526,31.692z"/>
	<path d="M-10.246,30.495l1.449,2.306c0,0,0.555-1.621,0.946-2.012l-1.334-2.301C-9.799,29.162-10.092,30.157-10.246,30.495z"/>
	<path d="M-7.428,34.98l1.42,2.26c0.313-0.313,0.725-1.338,0.976-1.589l-1.373-2.369C-6.664,33.625-7.128,34.47-7.428,34.98z"/>
	<path d="M-9.54,34.034c-0.325,0.325-0.677,0.51-0.677,0.51l1.493,1.756c0,0,0.41-0.284,0.687-0.561
		c0.278-0.278,0.608-0.758,0.608-0.758l-1.369-2.179C-8.797,32.801-9.032,33.526-9.54,34.034z"/>
	<path d="M-14.141,33.396l1.82,1.821c1.276-0.177,2.104-0.673,2.104-0.673l-1.617-1.902C-11.835,32.642-12.668,33.2-14.141,33.396z"/>
	<path d="M-7.058,38.254c0,0-0.511,0.396-1.486,0.739l-1.914-1.914c0.978-0.259,1.734-0.778,1.734-0.778L-7.058,38.254z"/>
</g>
<g id="Layer_1">
	
		<line fill="none" stroke="#000000" stroke-linecap="round" stroke-linejoin="round" stroke-miterlimit="10" x1="-2.969" y1="40" x2="3.74" y2="25.807"/>
	<path fill="none" stroke="#000000" stroke-linecap="round" stroke-linejoin="round" stroke-miterlimit="10" d="M3.931,26.154
		c0,0,2.605-0.105,4.776,2.066c1.321,1.321,1.064,2.786,2.155,3.877c1.09,1.09,2.998,1.276,2.998,1.276l-5.597,5.597
		c0,0-1.218-0.356-2.153-1.292c-0.935-0.935-0.885-1.747-2.152-3.014c-1.202-1.202-3.497-1.165-3.497-1.165L3.931,26.154z"/>
	<path d="M3.931,26.154c0,0,1.335-0.038,2.493,0.555l-1.049,2.387c0,0-1.175-0.553-2.543-0.596l1.057-2.26"/>
	<path d="M5.375,29.095l-1.131,2.573c0,0,0.769,0.366,1.159,0.756c0.391,0.391,0.72,0.835,0.72,0.835l1.446-2.493
		c0,0-0.127-0.169-0.31-0.351C6.386,29.541,5.375,29.095,5.375,29.095z"/>
	<path d="M1.585,31.152L0.46,33.499c0,0,1.655,0.035,2.688,0.612l1.096-2.442C3.171,31.192,1.585,31.152,1.585,31.152z"/>
	<path d="M8.905,28.465l-1.334,2.301c0.391,0.391,0.946,2.012,0.946,2.012l1.449-2.306C9.811,30.134,9.518,29.139,8.905,28.465z"/>
	<path d="M6.125,33.26l-1.373,2.369c0.251,0.251,0.663,1.276,0.976,1.589l1.42-2.26C6.847,34.447,6.383,33.602,6.125,33.26z"/>
	<path d="M8.516,32.779l-1.369,2.179c0,0,0.33,0.48,0.608,0.758c0.278,0.278,0.687,0.561,0.687,0.561l1.493-1.756
		c0,0-0.352-0.185-0.677-0.51C8.751,33.503,8.516,32.779,8.516,32.779z"/>
	<path d="M11.553,32.619l-1.617,1.902c0,0,0.828,0.495,2.104,0.673l1.82-1.821C12.386,33.177,11.553,32.619,11.553,32.619z"/>
	<path d="M8.442,36.277c0,0,0.755,0.519,1.734,0.778l-1.914,1.914c-0.975-0.343-1.486-0.739-1.486-0.739L8.442,36.277z"/>
</g>
</symbol><symbol id="info" viewBox="0 0 85 85"><path d="M42.5,0.003C19.028,0.003,0,19.031,0,42.503s19.028,42.5,42.5,42.5S85,65.976,85,42.503S65.972,0.003,42.5,0.003z   M42.288,66.27c0,0-1.972,1.311-3.32,1.305c-0.12,0.055-0.191,0.087-0.191,0.087l0.003-0.087c-0.283-0.013-0.568-0.053-0.855-0.125  l-0.426-0.105c-2.354-0.584-3.6-2.918-3.014-5.271l3.277-13.211l1.479-5.967c1.376-5.54-4.363,1.178-5.54-1.374  c-0.777-1.687,4.464-5.227,8.293-7.896c0,0,1.97-1.309,3.319-1.304c0.121-0.056,0.192-0.087,0.192-0.087l-0.005,0.087  c0.285,0.013,0.57,0.053,0.857,0.124l0.426,0.106c2.354,0.584,3.788,2.965,3.204,5.318l-3.276,13.212l-1.482,5.967  c-1.374,5.54,4.27-1.204,5.446,1.351C51.452,60.085,46.116,63.601,42.288,66.27z M50.594,24.976  c-0.818,3.295-4.152,5.304-7.446,4.486c-3.296-0.818-5.305-4.151-4.487-7.447c0.818-3.296,4.152-5.304,7.446-4.486  C49.403,18.346,51.411,21.68,50.594,24.976z"/></symbol><symbol id="line-banner" viewBox="0 0 16 2">
<path fill-rule="evenodd" fill="#fecc1a" clip-rule="evenodd" d="M0,2V0h7.999v2H0z"/>
</symbol><symbol id="load" viewBox="20.791 8.583 100.149 133.149">
<g id="Livello_32">
	<path d="M120.806,125.326H20.925v16.594h99.881C120.806,141.919,120.806,125.326,120.806,125.326z M109.876,60.797L77.342,93.333
		V8.583L64.22,8.584v84.75L32.124,61.239l-9.277,9.279l47.886,44.973L119.15,70.08"/>
</g>
<g id="Livello_1_1_">
</g>
</symbol><symbol id="lock" viewBox="2.016 -0.013 19.984 24.014">
<path d="M20.002,24.001H4.014c-1.104,0-1.998-0.896-1.998-2.001V11.994c0-1.105,0.895-2.002,1.998-2.002h0.999V6.991
	c0-3.868,3.132-7.004,6.995-7.004s6.995,3.136,6.995,7.004v3.001h0.999c1.104,0,1.998,0.896,1.998,2.002V22
	C22,23.104,21.105,24.001,20.002,24.001z M16.005,6.991c0-2.21-1.79-4.002-3.997-4.002S8.011,4.781,8.011,6.991v3.001h7.994V6.991z"/>
</symbol><symbol id="Logo general" viewBox="0 0 1043.244 332.212">
<g id="International_House">
	<path fill="#003A78" d="M386.427,67.013h17.754v80.737h-17.754V67.013z"/>
	<path fill="#003A78" d="M419.084,89.293h15.268v8.139h0.339c4.072-6.558,11.08-9.721,17.867-9.721
		c17.074,0,21.37,9.608,21.37,24.08v35.96h-16.056v-33.02c0-9.607-2.829-14.358-10.29-14.358c-8.709,0-12.439,4.86-12.439,16.733
		v30.645h-16.06V89.293z"/>
	<path fill="#003A78" d="M504.483,89.293h11.76v10.74h-11.76v28.947c0,5.43,1.353,6.782,6.783,6.782
		c1.698,0,3.278-0.109,4.977-0.449v12.552c-2.715,0.449-6.218,0.564-9.388,0.564c-9.837,0-18.432-2.262-18.432-13.91v-34.486H478.7
		v-10.74h9.724V71.764h16.06V89.293z"/>
	<path fill="#003A78" d="M536.153,122.421c0.455,10.176,5.431,14.812,14.363,14.812c6.444,0,11.644-3.958,12.663-7.575h14.134
		c-4.521,13.793-14.134,19.674-27.365,19.674c-18.431,0-29.849-12.663-29.849-30.754c0-17.529,12.096-30.869,29.849-30.869
		c19.904,0,29.518,16.734,28.382,34.711H536.153z M562.276,112.245c-1.473-8.141-4.975-12.438-12.776-12.438
		c-10.177,0-13.115,7.916-13.347,12.438H562.276z"/>
	<path fill="#003A78" d="M587.818,89.293h15.268v10.854h0.226c2.939-7.351,10.856-12.437,18.66-12.437
		c1.127,0,2.484,0.225,3.504,0.564v14.922c-1.473-0.339-3.843-0.564-5.766-0.564c-11.763,0-15.83,8.48-15.83,18.77v26.347h-16.062
		V89.293z"/>
	<path fill="#003A78" d="M630.812,89.293h15.268v8.139h0.339c4.073-6.558,11.079-9.721,17.866-9.721
		c17.074,0,21.372,9.608,21.372,24.08v35.96h-16.056v-33.02c0-9.607-2.83-14.358-10.292-14.358c-8.709,0-12.435,4.86-12.435,16.733
		v30.645h-16.063V89.293z"/>
	<path fill="#003A78" d="M696.18,107.269c0.905-15.037,14.36-19.559,27.476-19.559c11.648,0,25.668,2.6,25.668,16.619v30.42
		c0,5.31,0.563,10.625,2.036,13.001h-16.284c-0.567-1.807-1.02-3.734-1.13-5.654c-5.091,5.314-12.552,7.237-19.678,7.237
		c-11.08,0-19.898-5.541-19.898-17.528c0-13.226,9.95-16.396,19.898-17.753c9.84-1.467,19.001-1.127,19.001-7.687
		c0-6.896-4.752-7.915-10.407-7.915c-6.103,0-10.061,2.484-10.625,8.818H696.18z M733.269,119.143
		c-2.716,2.375-8.371,2.485-13.347,3.392c-4.975,1.019-9.498,2.711-9.498,8.595c0,5.99,4.637,7.462,9.838,7.462
		c12.551,0,13.007-9.952,13.007-13.456V119.143z"/>
	<path fill="#003A78" d="M781.109,89.293h11.757v10.74h-11.757v28.947c0,5.43,1.352,6.782,6.781,6.782
		c1.697,0,3.28-0.109,4.976-0.449v12.552c-2.715,0.449-6.219,0.564-9.387,0.564c-9.837,0-18.433-2.262-18.433-13.91v-34.486h-9.721
		v-10.74h9.721V71.764h16.063V89.293z"/>
	<path fill="#003A78" d="M819.056,80.244h-16.054V67.013h16.054V80.244z M803.002,89.293h16.054v58.457h-16.054V89.293z"/>
	<path fill="#003A78" d="M859.103,87.71c18.43,0,30.303,12.208,30.303,30.869c0,18.542-11.873,30.754-30.303,30.754
		c-18.318,0-30.19-12.212-30.19-30.754C828.913,99.918,840.785,87.71,859.103,87.71z M859.103,137.233
		c10.969,0,14.249-9.388,14.249-18.655c0-9.388-3.28-18.771-14.249-18.771c-10.856,0-14.135,9.383-14.135,18.771
		C844.968,127.845,848.247,137.233,859.103,137.233z"/>
	<path fill="#003A78" d="M896.796,89.293h15.268v8.139h0.34c4.072-6.558,11.08-9.721,17.866-9.721
		c17.075,0,21.372,9.608,21.372,24.08v35.96h-16.058v-33.02c0-9.607-2.828-14.358-10.29-14.358c-8.709,0-12.438,4.86-12.438,16.733
		v30.645h-16.061V89.293z"/>
	<path fill="#003A78" d="M962.164,107.269c0.903-15.037,14.359-19.559,27.476-19.559c11.649,0,25.668,2.6,25.668,16.619v30.42
		c0,5.31,0.563,10.625,2.037,13.001h-16.286c-0.563-1.807-1.02-3.734-1.127-5.654c-5.092,5.314-12.554,7.237-19.681,7.237
		c-11.078,0-19.897-5.541-19.897-17.528c0-13.226,9.953-16.396,19.897-17.753c9.843-1.467,19.002-1.127,19.002-7.687
		c0-6.896-4.752-7.915-10.406-7.915c-6.104,0-10.062,2.484-10.626,8.818H962.164z M999.252,119.143
		c-2.716,2.375-8.37,2.485-13.346,3.392c-4.977,1.019-9.498,2.711-9.498,8.595c0,5.99,4.637,7.462,9.838,7.462
		c12.551,0,13.006-9.952,13.006-13.456V119.143z"/>
	<path fill="#003A78" d="M1027.189,67.013h16.055v80.737h-16.055V67.013z"/>
	<path fill="#003A78" d="M386.427,168.766h17.754v30.982h32.678v-30.982h17.754v80.737h-17.754v-34.826h-32.678v34.826h-17.754
		V168.766z"/>
	<path fill="#003A78" d="M494.889,189.463c18.431,0,30.305,12.208,30.305,30.867c0,18.542-11.874,30.753-30.305,30.753
		c-18.316,0-30.188-12.211-30.188-30.753C464.701,201.671,476.573,189.463,494.889,189.463z M494.889,238.987
		c10.971,0,14.249-9.389,14.249-18.657c0-9.386-3.278-18.771-14.249-18.771c-10.855,0-14.134,9.384-14.134,18.771
		C480.755,229.599,484.035,238.987,494.889,238.987z"/>
	<path fill="#003A78" d="M588.43,249.503h-15.268v-8.141h-0.34c-4.066,6.558-11.08,9.721-17.869,9.721
		c-17.073,0-21.369-9.613-21.369-24.084v-35.955h16.061v33.016c0,9.613,2.825,14.364,10.287,14.364
		c8.708,0,12.44-4.866,12.44-16.736v-30.644h16.058V249.503z"/>
	<path fill="#003A78" d="M612.069,230.505c0.109,7.01,5.988,9.84,12.322,9.84c4.637,0,10.515-1.814,10.515-7.464
		c0-4.864-6.673-6.561-18.202-9.046c-9.273-2.038-18.544-5.316-18.544-15.606c0-14.922,12.891-18.766,25.442-18.766
		c12.776,0,24.536,4.292,25.777,18.655h-15.261c-0.456-6.218-5.207-7.915-10.971-7.915c-3.617,0-8.935,0.679-8.935,5.424
		c0,5.77,9.049,6.56,18.207,8.71c9.383,2.145,18.541,5.539,18.541,16.395c0,15.378-13.34,20.352-26.68,20.352
		c-13.57,0-26.802-5.084-27.479-20.578H612.069z"/>
	<path fill="#003A78" d="M673.57,224.173c0.455,10.177,5.43,14.814,14.364,14.814c6.444,0,11.643-3.957,12.662-7.577h14.134
		c-4.521,13.795-14.134,19.673-27.365,19.673c-18.431,0-29.85-12.659-29.85-30.753c0-17.527,12.097-30.867,29.85-30.867
		c19.904,0,29.518,16.735,28.383,34.71H673.57z M699.694,213.998c-1.473-8.14-4.977-12.438-12.776-12.438
		c-10.178,0-13.117,7.917-13.348,12.438H699.694z"/>
</g>
<g id="Minsk_4_">
	<path fill="#6A737B" d="M385.516,272.515h18.122l13.694,40.263h0.164l12.956-40.263h18.122v58.549H436.52v-41.492h-0.164
		l-14.35,41.492h-9.922l-14.35-41.082h-0.164v41.082h-12.054V272.515z"/>
	<path fill="#6A737B" d="M468.541,282.109h-11.645v-9.595h11.645V282.109z M456.897,288.669h11.645v42.395h-11.645V288.669z"/>
	<path fill="#6A737B" d="M475.706,288.669h11.07v5.904h0.246c2.952-4.756,8.036-7.052,12.956-7.052
		c12.382,0,15.498,6.97,15.498,17.466v26.076h-11.643v-23.944c0-6.97-2.051-10.414-7.463-10.414c-6.313,0-9.02,3.526-9.02,12.136
		v22.223h-11.645V288.669z"/>
	<path fill="#6A737B" d="M531.278,317.287c0.082,5.084,4.346,7.135,8.938,7.135c3.362,0,7.627-1.313,7.627-5.412
		c0-3.526-4.839-4.757-13.202-6.56c-6.725-1.476-13.448-3.854-13.448-11.316c0-10.823,9.348-13.611,18.45-13.611
		c9.266,0,17.794,3.115,18.696,13.529h-11.07c-0.328-4.51-3.772-5.739-7.954-5.739c-2.624,0-6.479,0.491-6.479,3.935
		c0,4.183,6.561,4.756,13.202,6.315c6.807,1.558,13.448,4.018,13.448,11.89c0,11.152-9.676,14.761-19.352,14.761
		c-9.841,0-19.435-3.69-19.927-14.925H531.278z"/>
	<path fill="#6A737B" d="M565.134,272.515h11.644v31.406l14.679-15.252h13.776l-15.99,15.58l17.794,26.815h-14.104l-11.644-18.942
		l-4.511,4.347v14.596h-11.644V272.515z"/>
</g>
<g id="Round_2_">
	<g>
		<path fill="#003A78" d="M331.203,165.601c0,91.458-74.147,165.602-165.605,165.602C74.143,331.203,0,257.059,0,165.601
			C0,74.141,74.143,0,165.598,0C257.056,0,331.203,74.141,331.203,165.601z"/>
	</g>
</g>
<g id="IH">
	<path fill="#FFFFFF" d="M154.671,70.416c-10.926,0-19.793,8.869-19.793,19.817c0,10.921,8.867,19.796,19.793,19.796
		c10.944,0,19.797-8.876,19.797-19.796C174.468,79.285,165.616,70.416,154.671,70.416z"/>
	<rect x="136.479" y="119.037" fill="#FFFFFF" width="36.324" height="130.825"/>
	<path fill="#FFFFFF" d="M226.726,135.064V66.132h-37.257v183.703h37.257v-71.328c-0.163-14.322,7.07-30.249,23.186-29.842
		c23.314,0.585,21.433,20.002,21.433,37.907v63.263h36.603l-0.055-79.489c0.58-18.754-0.023-56.972-43.637-56.972
		C248.626,113.374,233.081,121.467,226.726,135.064z"/>
</g>
</symbol><symbol id="mail" viewBox="1 4 22 16">
<title/>
<desc/>
<g id="miu">
	<g id="Artboard-1" transform="translate(-251.000000, -335.000000)">
		<g id="slice" transform="translate(215.000000, 119.000000)">
		</g>
		<path id="common-email-envelope-mail-glyph" d="M273.293,355h-20.582l0,0l7.331-7.334L263,349.93l2.961-2.265L273.293,355z
			 M274,354.293v-12.781l0,0l-7.238,5.539L274,354.293z M252,354.297v-12.785l7.24,5.54L252,354.297L252,354.297z M274,340.254V339
			h-22v1.254l11,8.434L274,340.254z"/>
	</g>
</g>
</symbol><symbol id="map_marker" viewBox="19.989 0 101.754 139.273">
<g id="Livello_110">
	<path fill="#003A78" d="M95.35,50.645c0,13.98-11.389,25.322-25.438,25.322c-14.051,0-25.438-11.342-25.438-25.322
		c0-13.984,11.389-25.322,25.438-25.322C83.964,25.322,95.35,36.66,95.35,50.645 M121.743,50.645C121.743,22.674,98.966,0,70.866,0
		C42.768,0,19.989,22.674,19.989,50.645c0,12.298,4.408,23.574,11.733,32.345l39.188,56.283l39.761-57.104
		c1.428-1.779,2.736-3.654,3.916-5.625l0.402-0.574h-0.066C119.253,68.516,121.743,59.874,121.743,50.645"/>
</g>
<g id="Livello_1_1_">
</g>
<g id="Round_2_">
	<g>
		<path fill="#003A78" d="M111.866,51.601c0,22.643-18.357,41-41.001,41c-22.643,0-40.999-18.357-40.999-41
			c0-22.644,18.356-41,40.999-41C93.509,10.602,111.866,28.958,111.866,51.601z"/>
	</g>
</g>
<g id="IH">
	<path fill="#FFFFFF" d="M49.887,22.618c-3.568,0-6.464,2.896-6.464,6.472c0,3.566,2.896,6.465,6.464,6.465
		c3.574,0,6.465-2.899,6.465-6.465C56.352,25.514,53.461,22.618,49.887,22.618z"/>
	<rect x="43.946" y="38.496" fill="#FFFFFF" width="11.862" height="42.723"/>
	<path fill="#FFFFFF" d="M73.417,43.73V21.219H61.25V81.21h12.167V57.917c-0.053-4.677,2.309-9.878,7.572-9.745
		c7.614,0.191,6.999,6.532,6.999,12.379v20.66h11.953l-0.018-25.958c0.189-6.124-0.008-18.605-14.25-18.605
		C80.569,36.646,75.493,39.289,73.417,43.73z"/>
</g>
</symbol><symbol id="marker" viewBox="0 0 24 24">
	<g fill="none" fill-rule="evenodd" id="miu" stroke="none" stroke-width="1">
		<g transform="translate(-471.000000, -443.000000)">
			<g id="slice" transform="translate(215.000000, 119.000000)"/>
			<path d="M479.5,466 C479.5,466 487,456.127718 487,451.812818 C487,447.497918 484.518799,443.999999 479.5,444 C474.481201,444.000001 472,447.497918 472,451.812818 C472,456.127718 479.5,466 479.5,466 L479.5,466 Z M479.5,454.5 C481.709139,454.5 483.5,452.709139 483.5,450.5 C483.5,448.290861 481.709139,446.5 479.5,446.5 C477.290861,446.5 475.5,448.290861 475.5,450.5 C475.5,452.709139 477.290861,454.5 479.5,454.5 L479.5,454.5 Z" fill="#003e7e" id="map-location-pin-map-marker-glyph"/>
		</g>
	</g>
</symbol><symbol id="menu" viewBox="6 12 36 24">
<path fill="none" d="M0,0h48v48H0V0z"/>
<path d="M6,36h36v-4H6V36z M6,26h36v-4H6V26z M6,12v4h36v-4H6z"/>
</symbol><symbol id="pencil" viewBox="0 0 139.459 139.459">
<g id="Livello_99">
	<path d="M134.117,31.135c7.123-7.123,7.123-18.67,0-25.793c-7.121-7.121-18.67-7.123-25.793,0L12.895,100.77l25.793,25.793
		L134.117,31.135z M33.528,131.724L7.737,105.933L0,139.459L33.528,131.724z"/>
</g>
<g id="Livello_1_1_">
</g>
</symbol><symbol id="person" viewBox="96 96 320 320">
<g>
	<path d="M363.3,363.9c-12.9-4.6-31.4-6.2-43.2-8.8c-6.8-1.5-16.7-5.3-20-9.2c-3.3-4-1.3-40.9-1.3-40.9s6.1-9.6,9.4-18
		s6.9-31.4,6.9-31.4s6.8,0,9.2-11.9c2.6-13,6.6-18.4,6.1-28.1c-0.5-9-5.2-9.5-5.7-9.5l0,0c0,0,4.9-13.6,5.6-42.4
		C331.1,129.6,305,96,256,96s-75,33.5-74.3,67.6c0.6,28.7,5.6,42.4,5.6,42.4l0,0c-0.5,0-5.2,0.5-5.7,9.5c-0.5,9.7,3.6,14.9,6.1,27.9
		c2.4,11.9,9.2,12,9.2,12s3.6,23.1,6.9,31.5c3.3,8.5,9.4,18,9.4,18s2,36.9-1.3,40.9s-13.2,7.7-20,9.2c-11.9,2.6-30.3,4.3-43.2,8.9
		S96,384,96,416h160h160C416,384,376.2,368.5,363.3,363.9z"/>
</g>
</symbol><symbol id="pin 16" viewBox="0 0 101.754 139.273">
<g id="Livello_110">
	<path d="M75.361,50.645c0,13.98-11.389,25.322-25.438,25.322c-14.051,0-25.438-11.342-25.438-25.322
		c0-13.984,11.389-25.322,25.438-25.322C63.975,25.322,75.361,36.66,75.361,50.645 M101.754,50.645
		C101.754,22.674,78.977,0,50.877,0C22.779,0,0,22.674,0,50.645C0,62.943,4.408,74.219,11.733,82.99l39.188,56.283l39.761-57.104
		c1.428-1.779,2.736-3.654,3.916-5.625L95,75.97h-0.066C99.264,68.516,101.754,59.874,101.754,50.645"/>
</g>
<g id="Livello_1_1_">
</g>
</symbol><symbol id="pin 24" viewBox="0 0 101.754 139.273">
<g id="Livello_110">
	<path d="M75.361,50.645c0,13.98-11.389,25.322-25.438,25.322c-14.051,0-25.438-11.342-25.438-25.322
		c0-13.984,11.389-25.322,25.438-25.322C63.975,25.322,75.361,36.66,75.361,50.645 M101.754,50.645
		C101.754,22.674,78.977,0,50.877,0C22.779,0,0,22.674,0,50.645C0,62.943,4.408,74.219,11.733,82.99l39.188,56.283l39.761-57.104
		c1.428-1.779,2.736-3.654,3.916-5.625L95,75.97h-0.066C99.264,68.516,101.754,59.874,101.754,50.645"/>
</g>
<g id="Livello_1_1_">
</g>
</symbol><symbol id="pin" viewBox="0 0 60 60">
	<g fill="none" fill-rule="evenodd" id="black" stroke="none" stroke-width="1">
	<g id="slice" transform="translate(-401.000000, -601.000000)"/>
		<g fill="#000000" id="location" transform="translate(0.000000, 0.000000)">
			<path d="M0.307692308,12.3846154 C0.307692308,18.7576923 11.8461538,33.6631611 11.8461538,33.2583571 C11.8461538,32.8535532 23.3846154,18.7576923 23.3846154,12.3846154 C23.3846154,6.01153846 18.2153846,0.846153846 11.8461538,0.846153846 C5.47692308,0.846153846 0.307692308,6.01153846 0.307692308,12.3846154 Z M6.07692308,11.2307692 C6.07692308,14.4173077 8.66153846,17 11.8461538,17 C15.0307692,17 17.6153846,14.4173077 17.6153846,11.2307692 C17.6153846,8.04423077 15.0307692,5.46153846 11.8461538,5.46153846 C8.66153846,5.46153846 6.07692308,8.04423077 6.07692308,11.2307692 Z"/>
		</g>
	</g>
</symbol><symbol id="plus" viewBox="0 0 384 384">
<polygon points="384,161 224,161 224,1 160,1 160,161 0,161 0,225 160,225 160,385 224,385 224,225 384,225 "/>
</symbol><symbol id="search-admin" viewBox="0 0 32 32"><title/><desc/><g fill="none" fill-rule="evenodd" id="Page-1" stroke="none" stroke-width="1"><g fill="#c3c3c3" id="icon-111-search"><path d="M19.4271164,21.4271164 C18.0372495,22.4174803 16.3366522,23 14.5,23 C9.80557939,23 6,19.1944206 6,14.5 C6,9.80557939 9.80557939,6 14.5,6 C19.1944206,6 23,9.80557939 23,14.5 C23,16.3366522 22.4174803,18.0372495 21.4271164,19.4271164 L27.0119176,25.0119176 C27.5621186,25.5621186 27.5575313,26.4424687 27.0117185,26.9882815 L26.9882815,27.0117185 C26.4438648,27.5561352 25.5576204,27.5576204 25.0119176,27.0119176 L19.4271164,21.4271164 L19.4271164,21.4271164 Z M14.5,21 C18.0898511,21 21,18.0898511 21,14.5 C21,10.9101489 18.0898511,8 14.5,8 C10.9101489,8 8,10.9101489 8,14.5 C8,18.0898511 10.9101489,21 14.5,21 L14.5,21 Z" id="search"/></g></g></symbol><symbol id="settings" viewBox="0 0 383.603 384.1">
<path d="M360.5,152.5h-15.2c-12.4,0-22.8-10.7-22.8-23.4c0-6.4,2.7-12.2,7.5-16.5l9.8-9.6c9.7-9.6,9.7-25.3,0-34.9L317.5,46
	c-4.4-4.4-10.9-7-17.5-7s-13,2.6-17.5,7l-9.4,9.4c-4.5,5-10.5,7.7-17,7.7c-12.8,0-23.5-10.4-23.5-22.7V25.1
	c0-13.5-10.9-25.1-24.5-25.1h-30.4c-13.6,0-24.4,11.5-24.4,25.1v15.2c0,12.3-10.7,22.7-23.5,22.7c-6.4,0-12.3-2.7-16.6-7.4l-9.7-9.6
	c-4.4-4.5-10.9-7-17.5-7s-13,2.6-17.5,7L46,68c-9.6,9.6-9.6,25.3,0,34.8l9.4,9.4c5,4.5,7.8,10.5,7.8,16.9
	c0,12.8-10.4,23.4-22.8,23.4H25.2C11.5,152.5,0,163.2,0,176.8V192v15.2c0,13.5,11.5,24.3,25.2,24.3h15.2c12.4,0,22.8,10.7,22.8,23.4
	c0,6.4-2.8,12.4-7.8,16.9l-9.4,9.3c-9.6,9.6-9.6,25.3,0,34.8l22.3,22.2c4.4,4.5,10.9,7,17.5,7s13-2.6,17.5-7l9.7-9.6
	c4.2-4.7,10.2-7.4,16.6-7.4c12.8,0,23.5,10.4,23.5,22.7V359c0,13.5,10.8,25.1,24.5,25.1H208c13.6,0,24.4-11.5,24.4-25.1v-15.2
	c0-12.3,10.7-22.7,23.5-22.7c6.4,0,12.4,2.8,17,7.7l9.4,9.4c4.5,4.4,10.9,7,17.5,7s13-2.6,17.5-7l22.3-22.2c9.6-9.6,9.6-25.3,0-34.9
	l-9.8-9.6c-4.8-4.3-7.5-10.2-7.5-16.5c0-12.8,10.4-23.4,22.8-23.4h15.2c13.6,0,23.3-10.7,23.3-24.3V192v-15.2
	C383.8,163.2,374.1,152.5,360.5,152.5z M272.8,192L272.8,192c0,44.1-35.7,80-80,80s-80-35.9-80-80l0,0l0,0c0-44.1,35.7-80,80-80
	S272.8,147.9,272.8,192L272.8,192z"/>
</symbol><symbol id="social fb" viewBox="0 0 94.109 94.078">
<g id="&#x421;&#x43B;&#x43E;&#x439;_1__x28_&#x43A;&#x43E;&#x43F;&#x438;&#x44F;_x29_">
	<path fill="none" stroke="#000000" stroke-width="2" stroke-miterlimit="10" d="M47.099,92.628L1.505,47.034L47.099,1.44
		l45.594,45.594L47.099,92.628z"/>
	<path display="none" fill="#010202" d="M49.578,39.451h7.313l-0.51,6.382h-6.803v22.174h-8.593V45.834h-4.586v-6.382h4.586v-4.289
		c0-1.887,0.05-4.805,1.477-6.611c1.504-1.91,3.569-3.209,7.116-3.209c5.783,0,8.221,0.791,8.221,0.791l-1.147,6.537
		c0,0-1.91-0.532-3.694-0.532c-1.783,0-3.38,0.612-3.38,2.329L49.578,39.451L49.578,39.451z"/>
</g>
<g id="&#x421;&#x43B;&#x43E;&#x439;_1">
	<path display="none" fill="none" stroke="#000000" stroke-miterlimit="10" d="M47.099,92.628L1.505,47.034L47.099,1.44
		l45.594,45.594L47.099,92.628z"/>
	<path fill="#010202" d="M49.655,42.142h4.59l-0.32,4.006h-4.27v13.917h-5.393V46.147h-2.878v-4.006h2.878v-2.692
		c0-1.184,0.031-3.015,0.927-4.149c0.944-1.199,2.24-2.014,4.466-2.014c3.629,0,5.16,0.497,5.16,0.497l-0.72,4.103
		c0,0-1.199-0.334-2.318-0.334c-1.119,0-2.121,0.384-2.121,1.462L49.655,42.142L49.655,42.142z"/>
</g>
</symbol><symbol id="social g" viewBox="0 0 94.109 94.078">
<g id="&#x421;&#x43B;&#x43E;&#x439;_1__x28_&#x43A;&#x43E;&#x43F;&#x438;&#x44F;_x29_">
	<path fill="none" stroke="#000000" stroke-width="2" stroke-miterlimit="10" d="M47.099,92.628L1.505,47.034L47.099,1.44
		l45.594,45.594L47.099,92.628z"/>
	<path display="none" fill="#010202" d="M49.578,39.451h7.313l-0.51,6.382h-6.803v22.174h-8.593V45.834h-4.586v-6.382h4.586v-4.289
		c0-1.887,0.05-4.805,1.477-6.611c1.504-1.91,3.569-3.209,7.116-3.209c5.783,0,8.221,0.791,8.221,0.791l-1.147,6.537
		c0,0-1.91-0.532-3.694-0.532c-1.783,0-3.38,0.612-3.38,2.329L49.578,39.451L49.578,39.451z"/>
</g>
<g id="&#x421;&#x43B;&#x43E;&#x439;_1">
	<path display="none" fill="none" stroke="#000000" stroke-miterlimit="10" d="M47.099,92.628L1.505,47.034L47.099,1.44
		l45.594,45.594L47.099,92.628z"/>
	<path display="none" fill="#010202" d="M49.655,42.142h4.59l-0.32,4.006h-4.27v13.917h-5.393V46.147h-2.878v-4.006h2.878v-2.692
		c0-1.184,0.031-3.015,0.927-4.149c0.944-1.199,2.24-2.014,4.466-2.014c3.629,0,5.16,0.497,5.16,0.497l-0.72,4.103
		c0,0-1.199-0.334-2.318-0.334c-1.119,0-2.121,0.384-2.121,1.462L49.655,42.142L49.655,42.142z"/>
	<path display="none" fill="#010202" d="M63.45,38.267c-1.194,0.531-2.48,0.889-3.828,1.049c1.377-0.824,2.433-2.13,2.931-3.688
		c-1.288,0.764-2.714,1.319-4.233,1.618c-1.215-1.295-2.948-2.105-4.865-2.105c-3.681,0-6.665,2.984-6.665,6.665
		c0,0.522,0.059,1.03,0.173,1.519c-5.54-0.278-10.452-2.931-13.739-6.964c-0.574,0.984-0.902,2.129-0.902,3.352
		c0,2.312,1.177,4.353,2.965,5.548c-1.092-0.035-2.12-0.335-3.019-0.834c-0.001,0.028-0.001,0.056-0.001,0.084
		c0,3.229,2.298,5.922,5.347,6.536c-0.559,0.152-1.148,0.233-1.756,0.233c-0.43,0-0.847-0.042-1.254-0.12
		c0.849,2.648,3.31,4.576,6.226,4.629c-2.281,1.788-5.155,2.854-8.278,2.854c-0.537,0-1.068-0.032-1.59-0.094
		c2.951,1.892,6.454,2.995,10.218,2.995c12.261,0,18.964-10.156,18.964-18.964c0-0.289-0.006-0.577-0.018-0.863
		C61.426,40.779,62.557,39.604,63.45,38.267z"/>
	<path display="none" fill="#010202" d="M55.836,31.337H36.575c-3.346,0-6.068,2.721-6.068,6.067v6.409v12.853
		c0,3.346,2.722,6.067,6.068,6.067h19.262c3.346,0,6.067-2.721,6.067-6.067V43.812v-6.409
		C61.903,34.057,59.182,31.337,55.836,31.337z M57.576,34.954l0.694-0.003v0.691v4.631l-5.304,0.017l-0.018-5.321L57.576,34.954z
		 M41.724,43.812c1.006-1.391,2.637-2.304,4.481-2.304s3.475,0.913,4.48,2.304c0.654,0.908,1.046,2.019,1.046,3.222
		c0,3.047-2.481,5.525-5.527,5.525c-3.047,0-5.526-2.479-5.526-5.525C40.679,45.831,41.07,44.72,41.724,43.812z M58.844,56.664
		c0,1.66-1.35,3.008-3.008,3.008H36.575c-1.659,0-3.009-1.348-3.009-3.008V43.812h4.686c-0.405,0.996-0.632,2.083-0.632,3.222
		c0,4.733,3.85,8.586,8.585,8.586c4.734,0,8.584-3.853,8.584-8.586c0-1.139-0.229-2.227-0.633-3.222h4.688V56.664z"/>
	<g>
		<path fill="#010202" d="M64.089,44.108H58.82v-5.267c0-0.402-0.326-0.729-0.727-0.729h-1.5c-0.404,0-0.73,0.327-0.73,0.729v5.267
			h-5.269c-0.401,0-0.729,0.328-0.729,0.73v1.5c0,0.403,0.328,0.729,0.729,0.729h5.269v5.27c0,0.403,0.326,0.729,0.73,0.729h1.5
			c0.401,0,0.727-0.326,0.727-0.729v-5.271h5.269c0.401,0,0.729-0.326,0.729-0.729v-1.5C64.818,44.435,64.49,44.108,64.089,44.108z"/>
		<path fill="#010202" d="M46.384,48.727c-1.108-0.785-2.115-1.936-2.133-2.289c0-0.644,0.058-0.952,1.502-2.077
			c1.867-1.462,2.895-3.383,2.895-5.414c0-1.841-0.562-3.477-1.52-4.625h0.743c0.154,0,0.304-0.048,0.427-0.137l2.073-1.502
			c0.257-0.184,0.365-0.513,0.267-0.814c-0.099-0.3-0.377-0.505-0.693-0.505h-9.269c-1.014,0-2.044,0.179-3.056,0.527
			c-3.378,1.165-5.74,4.043-5.74,6.998c0,4.186,3.243,7.359,7.578,7.459c-0.085,0.332-0.128,0.659-0.128,0.979
			c0,0.645,0.163,1.256,0.5,1.847c-0.039,0-0.077,0-0.119,0c-4.132,0-7.862,2.028-9.278,5.045c-0.369,0.785-0.557,1.578-0.557,2.361
			c0,0.762,0.196,1.495,0.579,2.183c0.89,1.592,2.801,2.827,5.384,3.479c1.333,0.337,2.766,0.508,4.254,0.508
			c1.337,0,2.611-0.173,3.789-0.513c3.674-1.067,6.049-3.771,6.049-6.893C49.931,52.349,48.968,50.555,46.384,48.727z
			 M34.678,55.584c0-2.179,2.768-4.09,5.924-4.09h0.085c0.687,0.008,1.356,0.109,1.988,0.303c0.217,0.149,0.426,0.292,0.626,0.429
			c1.462,0.996,2.427,1.653,2.696,2.708c0.063,0.266,0.095,0.532,0.095,0.789c0,2.714-2.023,4.089-6.016,4.089
			C37.048,59.811,34.678,57.955,34.678,55.584z M37.549,34.994c0.493-0.563,1.139-0.861,1.864-0.861l0.082,0.001
			c2.049,0.06,4.009,2.343,4.369,5.089c0.203,1.537-0.14,2.983-0.912,3.864c-0.494,0.565-1.131,0.862-1.886,0.862c0,0,0,0-0.001,0
			h-0.033c-2.007-0.062-4.009-2.432-4.367-5.174C36.463,37.243,36.786,35.865,37.549,34.994z"/>
	</g>
</g>
</symbol><symbol id="social insta" viewBox="0 0 94.109 94.078">
<g id="&#x421;&#x43B;&#x43E;&#x439;_1__x28_&#x43A;&#x43E;&#x43F;&#x438;&#x44F;_x29_">
	<path fill="none" stroke="#000000" stroke-width="2" stroke-miterlimit="10" d="M47.099,92.628L1.505,47.034L47.099,1.44
		l45.594,45.594L47.099,92.628z"/>
	<path display="none" fill="#010202" d="M49.578,39.451h7.313l-0.51,6.382h-6.803v22.174h-8.593V45.834h-4.586v-6.382h4.586v-4.289
		c0-1.887,0.05-4.805,1.477-6.611c1.504-1.91,3.569-3.209,7.116-3.209c5.783,0,8.221,0.791,8.221,0.791l-1.147,6.537
		c0,0-1.91-0.532-3.694-0.532c-1.783,0-3.38,0.612-3.38,2.329L49.578,39.451L49.578,39.451z"/>
</g>
<g id="&#x421;&#x43B;&#x43E;&#x439;_1">
	<path display="none" fill="none" stroke="#000000" stroke-miterlimit="10" d="M47.099,92.628L1.505,47.034L47.099,1.44
		l45.594,45.594L47.099,92.628z"/>
	<path display="none" fill="#010202" d="M49.655,42.142h4.59l-0.32,4.006h-4.27v13.917h-5.393V46.147h-2.878v-4.006h2.878v-2.692
		c0-1.184,0.031-3.015,0.927-4.149c0.944-1.199,2.24-2.014,4.466-2.014c3.629,0,5.16,0.497,5.16,0.497l-0.72,4.103
		c0,0-1.199-0.334-2.318-0.334c-1.119,0-2.121,0.384-2.121,1.462L49.655,42.142L49.655,42.142z"/>
	<path display="none" fill="#010202" d="M63.45,38.267c-1.194,0.531-2.48,0.889-3.828,1.049c1.377-0.824,2.433-2.13,2.931-3.688
		c-1.288,0.764-2.714,1.319-4.233,1.618c-1.215-1.295-2.948-2.105-4.865-2.105c-3.681,0-6.665,2.984-6.665,6.665
		c0,0.522,0.059,1.03,0.173,1.519c-5.54-0.278-10.452-2.931-13.739-6.964c-0.574,0.984-0.902,2.129-0.902,3.352
		c0,2.312,1.177,4.353,2.965,5.548c-1.092-0.035-2.12-0.335-3.019-0.834c-0.001,0.028-0.001,0.056-0.001,0.084
		c0,3.229,2.298,5.922,5.347,6.536c-0.559,0.152-1.148,0.233-1.756,0.233c-0.43,0-0.847-0.042-1.254-0.12
		c0.849,2.648,3.31,4.576,6.226,4.629c-2.281,1.788-5.155,2.854-8.278,2.854c-0.537,0-1.068-0.032-1.59-0.094
		c2.951,1.892,6.454,2.995,10.218,2.995c12.261,0,18.964-10.156,18.964-18.964c0-0.289-0.006-0.577-0.018-0.863
		C61.426,40.779,62.557,39.604,63.45,38.267z"/>
	<path fill="#010202" d="M55.836,31.337H36.575c-3.346,0-6.068,2.721-6.068,6.067v6.409v12.853c0,3.346,2.722,6.067,6.068,6.067
		h19.262c3.346,0,6.067-2.721,6.067-6.067V43.812v-6.409C61.903,34.057,59.182,31.337,55.836,31.337z M57.576,34.954l0.694-0.003
		v0.691v4.631l-5.304,0.017l-0.018-5.321L57.576,34.954z M41.724,43.812c1.006-1.391,2.637-2.304,4.481-2.304
		s3.475,0.913,4.48,2.304c0.654,0.908,1.046,2.019,1.046,3.222c0,3.047-2.481,5.525-5.527,5.525c-3.047,0-5.526-2.479-5.526-5.525
		C40.679,45.831,41.07,44.72,41.724,43.812z M58.844,56.664c0,1.66-1.35,3.008-3.008,3.008H36.575c-1.659,0-3.009-1.348-3.009-3.008
		V43.812h4.686c-0.405,0.996-0.632,2.083-0.632,3.222c0,4.733,3.85,8.586,8.585,8.586c4.734,0,8.584-3.853,8.584-8.586
		c0-1.139-0.229-2.227-0.633-3.222h4.688V56.664z"/>
</g>
</symbol><symbol id="social tw" viewBox="0 0 94.109 94.078">
<g id="&#x421;&#x43B;&#x43E;&#x439;_1__x28_&#x43A;&#x43E;&#x43F;&#x438;&#x44F;_x29_">
	<path fill="none" stroke="#000000" stroke-width="2" stroke-miterlimit="10" d="M47.099,92.628L1.505,47.034L47.099,1.44
		l45.594,45.594L47.099,92.628z"/>
	<path display="none" fill="#010202" d="M49.578,39.451h7.313l-0.51,6.382h-6.803v22.174h-8.593V45.834h-4.586v-6.382h4.586v-4.289
		c0-1.887,0.05-4.805,1.477-6.611c1.504-1.91,3.569-3.209,7.116-3.209c5.783,0,8.221,0.791,8.221,0.791l-1.147,6.537
		c0,0-1.91-0.532-3.694-0.532c-1.783,0-3.38,0.612-3.38,2.329L49.578,39.451L49.578,39.451z"/>
</g>
<g id="&#x421;&#x43B;&#x43E;&#x439;_1">
	<path display="none" fill="none" stroke="#000000" stroke-miterlimit="10" d="M47.099,92.628L1.505,47.034L47.099,1.44
		l45.594,45.594L47.099,92.628z"/>
	<path display="none" fill="#010202" d="M49.655,42.142h4.59l-0.32,4.006h-4.27v13.917h-5.393V46.147h-2.878v-4.006h2.878v-2.692
		c0-1.184,0.031-3.015,0.927-4.149c0.944-1.199,2.24-2.014,4.466-2.014c3.629,0,5.16,0.497,5.16,0.497l-0.72,4.103
		c0,0-1.199-0.334-2.318-0.334c-1.119,0-2.121,0.384-2.121,1.462L49.655,42.142L49.655,42.142z"/>
	<path fill="#010202" d="M63.45,38.267c-1.194,0.531-2.48,0.889-3.828,1.049c1.377-0.824,2.433-2.13,2.931-3.688
		c-1.288,0.764-2.714,1.319-4.233,1.618c-1.215-1.295-2.948-2.105-4.865-2.105c-3.681,0-6.665,2.984-6.665,6.665
		c0,0.522,0.059,1.03,0.173,1.519c-5.54-0.278-10.452-2.931-13.739-6.964c-0.574,0.984-0.902,2.129-0.902,3.352
		c0,2.312,1.177,4.353,2.965,5.548c-1.092-0.035-2.12-0.335-3.019-0.834c-0.001,0.028-0.001,0.056-0.001,0.084
		c0,3.229,2.298,5.922,5.347,6.536c-0.559,0.152-1.148,0.233-1.756,0.233c-0.43,0-0.847-0.042-1.254-0.12
		c0.849,2.648,3.31,4.576,6.226,4.629c-2.281,1.788-5.155,2.854-8.278,2.854c-0.537,0-1.068-0.032-1.59-0.094
		c2.951,1.892,6.454,2.995,10.218,2.995c12.261,0,18.964-10.156,18.964-18.964c0-0.289-0.006-0.577-0.018-0.863
		C61.426,40.779,62.557,39.604,63.45,38.267z"/>
</g>
</symbol><symbol id="time" viewBox="0 0 140.314 140.314">
<g id="Livello_5">
	<path d="M113.326,70.191c0-2.97-2.377-5.376-5.307-5.376H75.543V32.387v-0.001c0-2.98-2.418-5.397-5.396-5.397
		c-2.98,0-5.398,2.417-5.398,5.397V70.17c0,2.981,2.418,5.398,5.398,5.398h37.875C110.949,75.568,113.326,73.161,113.326,70.191
		 M129.533,70.157c0,32.798-26.584,59.386-59.375,59.386c-32.793,0-59.375-26.588-59.375-59.386s26.582-59.386,59.375-59.386
		C102.949,10.771,129.533,37.359,129.533,70.157 M140.314,70.157C140.314,31.41,108.904,0,70.158,0C31.41,0,0,31.41,0,70.157
		s31.41,70.157,70.158,70.157C108.904,140.314,140.314,108.904,140.314,70.157"/>
</g>
<g id="Livello_1_1_">
</g>
</symbol><symbol id="triangle" viewBox="0 0 18.484 21.746">
	<path fill="none" stroke-width="2" stroke-miterlimit="1" d="M17.498,10.873L0.5,0.874v19.997L17.498,10.873z"/>
</symbol><symbol id="user" viewBox="0 0 50 50">
<circle fill="none" stroke="#000000" stroke-width="2" stroke-linecap="round" stroke-miterlimit="10" cx="25" cy="25" r="24"/>
<rect fill="none" width="50" height="50"/>
<path d="M29.933,35.528c-0.146-1.612-0.09-2.737-0.09-4.21c0.73-0.383,2.038-2.825,2.259-4.888c0.574-0.047,1.479-0.607,1.744-2.818
	c0.143-1.187-0.425-1.855-0.771-2.065c0.934-2.809,2.874-11.499-3.588-12.397c-0.665-1.168-2.368-1.759-4.581-1.759
	c-8.854,0.163-9.922,6.686-7.981,14.156c-0.345,0.21-0.913,0.878-0.771,2.065c0.266,2.211,1.17,2.771,1.744,2.818
	c0.22,2.062,1.58,4.505,2.312,4.888c0,1.473,0.055,2.598-0.091,4.21c-1.261,3.39-7.737,3.655-11.473,6.924
	c3.906,3.933,10.236,6.746,16.916,6.746s14.532-5.274,15.839-6.713C37.688,39.186,31.197,38.93,29.933,35.528z"/>
</symbol><symbol id="zigzag" viewBox="0 0 76.3 10.663">
<path fill-rule="evenodd" clip-rule="evenodd" d="M1.479,10.676l-1.377-1.45l8.732-8.289l1.377,1.45L1.479,10.676"/>
<path fill-rule="evenodd" clip-rule="evenodd" d="M8.813,0.937l8.732,8.289l-1.377,1.45L7.436,2.387L8.813,0.937"/>
<path fill-rule="evenodd" clip-rule="evenodd" d="M16.183,10.676l-1.377-1.45l8.732-8.289l1.377,1.45L16.183,10.676"/>
<path fill-rule="evenodd" clip-rule="evenodd" d="M23.516,0.937l8.732,8.289l-1.377,1.45l-8.732-8.289L23.516,0.937"/>
<path fill-rule="evenodd" clip-rule="evenodd" d="M30.854,10.676l-1.377-1.45l8.732-8.289l1.377,1.45L30.854,10.676"/>
<path fill-rule="evenodd" clip-rule="evenodd" d="M38.188,0.937l8.732,8.289l-1.377,1.45l-8.732-8.289L38.188,0.937"/>
<path fill-rule="evenodd" clip-rule="evenodd" d="M45.558,10.676l-1.377-1.45l8.732-8.289l1.377,1.45L45.558,10.676"/>
<path fill-rule="evenodd" clip-rule="evenodd" d="M52.891,0.937l8.732,8.289l-1.377,1.45l-8.732-8.289L52.891,0.937"/>
<path fill-rule="evenodd" clip-rule="evenodd" d="M60.235,10.676l-1.377-1.45l8.732-8.289l1.377,1.45L60.235,10.676"/>
<path fill-rule="evenodd" clip-rule="evenodd" d="M67.568,0.937L76.3,9.226l-1.377,1.45l-8.732-8.289L67.568,0.937"/>
<path display="none" fill-rule="evenodd" clip-rule="evenodd" d="M15.331,10.661l1.416-1.287L9.161,0.666L7.745,1.953L15.331,10.661
	"/>
<polygon display="none" fill-rule="evenodd" clip-rule="evenodd" points="24.271,2.642 15.286,10.656 13.952,9.172 22.937,1.157 "/>
<path display="none" fill-rule="evenodd" clip-rule="evenodd" d="M30.327,10.663l1.417-1.286l-7.582-8.713L22.745,1.95
	L30.327,10.663"/>
<path display="none" fill-rule="evenodd" clip-rule="evenodd" d="M31.491,10.327l-1.495-1.328L37.995,0l1.495,1.329L31.491,10.327"/>
<path display="none" fill-rule="evenodd" clip-rule="evenodd" d="M45.325,10.663l1.417-1.286L39.16,0.664L37.743,1.95L45.325,10.663
	"/>
<path display="none" fill-rule="evenodd" clip-rule="evenodd" d="M46.489,10.327l-1.495-1.328L52.993,0l1.495,1.329L46.489,10.327"/>
<path display="none" fill-rule="evenodd" clip-rule="evenodd" d="M60.323,10.663l1.417-1.286l-7.582-8.713L52.741,1.95
	L60.323,10.663"/>
<path display="none" fill-rule="evenodd" clip-rule="evenodd" d="M61.487,10.327l-1.495-1.328L67.992,0l1.495,1.329L61.487,10.327"/>
<path display="none" fill-rule="evenodd" clip-rule="evenodd" d="M75.321,10.663l1.417-1.286l-7.582-8.713L67.739,1.95
	L75.321,10.663"/>
<path display="none" fill-rule="evenodd" clip-rule="evenodd" d="M20.727,0.014L13.14,8.723l1.416,1.287l7.587-8.709L20.727,0.014"/>
<polygon display="none" fill-rule="evenodd" clip-rule="evenodd" points="29.667,8.034 20.682,0.019 19.348,1.504 28.333,9.519 "/>
<path display="none" fill-rule="evenodd" clip-rule="evenodd" d="M35.723,0.013L28.14,8.726l1.417,1.286l7.582-8.712L35.723,0.013"/>
<path display="none" fill-rule="evenodd" clip-rule="evenodd" d="M36.887,0.349l7.999,8.999l-1.495,1.328l-7.999-8.999L36.887,0.349
	"/>
<path display="none" fill-rule="evenodd" clip-rule="evenodd" d="M50.721,0.013l-7.582,8.713l1.417,1.286l7.582-8.712L50.721,0.013"/>
<path display="none" fill-rule="evenodd" clip-rule="evenodd" d="M51.885,0.349l7.999,8.999l-1.495,1.328L50.39,1.677L51.885,0.349"/>
<path display="none" fill-rule="evenodd" clip-rule="evenodd" d="M65.719,0.013l-7.582,8.713l1.417,1.286l7.582-8.712L65.719,0.013"/>
<path display="none" fill-rule="evenodd" clip-rule="evenodd" d="M66.883,0.349l7.999,8.999l-1.495,1.328l-7.999-8.999L66.883,0.349
	"/>
<path display="none" fill-rule="evenodd" clip-rule="evenodd" d="M80.717,10.663l1.417-1.286l-7.582-8.713L73.135,1.95
	L80.717,10.663"/>
</symbol><symbol id="zigzag_vert_blue" viewBox="33.332 -30.95 9.739 73.484">
	<path d="M33.332-30.916l1.45-1.377l8.289,8.732l-1.45,1.377L33.332-30.916"/>
	<path d="M43.07-23.582l-8.289,8.732l-1.45-1.377l8.289-8.732L43.07-23.582"/>
	<path d="M33.332-16.212l1.45-1.377l8.289,8.732l-1.45,1.377L33.332-16.212"/>
	<path d="M43.07-8.879l-8.289,8.732l-1.45-1.377l8.289-8.732L43.07-8.879"/>
	<path d="M33.332-1.541l1.45-1.377l8.289,8.732l-1.45,1.377L33.332-1.541"/>
	<path d="M43.07,5.793l-8.289,8.732l-1.45-1.377l8.289-8.732L43.07,5.793"/>
	<path d="M33.332,13.163l1.45-1.377l8.289,8.732l-1.45,1.377L33.332,13.163"/>
	<path d="M43.07,20.496l-8.289,8.732l-1.45-1.377l8.289-8.732L43.07,20.496"/>
	<path d="M33.332,27.84l1.45-1.377l8.289,8.732l-1.45,1.377L33.332,27.84"/>
	<path d="M43.07,35.174l-8.289,8.732l-1.45-1.377l8.289-8.732L43.07,35.174"/>
</symbol><symbol id="zigzag_vert_darkblue" viewBox="33.332 -30.95 9.739 73.484">
	<path d="M33.332-30.916l1.45-1.377l8.289,8.732l-1.45,1.377L33.332-30.916"/>
	<path d="M43.07-23.582l-8.289,8.732l-1.45-1.377l8.289-8.732L43.07-23.582"/>
	<path d="M33.332-16.212l1.45-1.377l8.289,8.732l-1.45,1.377L33.332-16.212"/>
	<path d="M43.07-8.879l-8.289,8.732l-1.45-1.377l8.289-8.732L43.07-8.879"/>
	<path d="M33.332-1.541l1.45-1.377l8.289,8.732l-1.45,1.377L33.332-1.541"/>
	<path d="M43.07,5.793l-8.289,8.732l-1.45-1.377l8.289-8.732L43.07,5.793"/>
	<path d="M33.332,13.163l1.45-1.377l8.289,8.732l-1.45,1.377L33.332,13.163"/>
	<path d="M43.07,20.496l-8.289,8.732l-1.45-1.377l8.289-8.732L43.07,20.496"/>
	<path d="M33.332,27.84l1.45-1.377l8.289,8.732l-1.45,1.377L33.332,27.84"/>
	<path d="M43.07,35.174l-8.289,8.732l-1.45-1.377l8.289-8.732L43.07,35.174"/>
</symbol><symbol id="zigzag_vert_pink" viewBox="33.332 -30.95 9.739 73.484">
	<path d="M33.332-30.916l1.45-1.377l8.289,8.732l-1.45,1.377L33.332-30.916"/>
	<path d="M43.07-23.582l-8.289,8.732l-1.45-1.377l8.289-8.732L43.07-23.582"/>
	<path d="M33.332-16.212l1.45-1.377l8.289,8.732l-1.45,1.377L33.332-16.212"/>
	<path d="M43.07-8.879l-8.289,8.732l-1.45-1.377l8.289-8.732L43.07-8.879"/>
	<path d="M33.332-1.541l1.45-1.377l8.289,8.732l-1.45,1.377L33.332-1.541"/>
	<path d="M43.07,5.793l-8.289,8.732l-1.45-1.377l8.289-8.732L43.07,5.793"/>
	<path d="M33.332,13.163l1.45-1.377l8.289,8.732l-1.45,1.377L33.332,13.163"/>
	<path d="M43.07,20.496l-8.289,8.732l-1.45-1.377l8.289-8.732L43.07,20.496"/>
	<path d="M33.332,27.84l1.45-1.377l8.289,8.732l-1.45,1.377L33.332,27.84"/>
	<path d="M43.07,35.174l-8.289,8.732l-1.45-1.377l8.289-8.732L43.07,35.174"/>
</symbol><symbol id="zigzag_vert_silver" viewBox="33.332 -30.95 9.739 73.484">
	<path d="M33.332-30.916l1.45-1.377l8.289,8.732l-1.45,1.377L33.332-30.916"/>
	<path d="M43.07-23.582l-8.289,8.732l-1.45-1.377l8.289-8.732L43.07-23.582"/>
	<path d="M33.332-16.212l1.45-1.377l8.289,8.732l-1.45,1.377L33.332-16.212"/>
	<path d="M43.07-8.879l-8.289,8.732l-1.45-1.377l8.289-8.732L43.07-8.879"/>
	<path d="M33.332-1.541l1.45-1.377l8.289,8.732l-1.45,1.377L33.332-1.541"/>
	<path d="M43.07,5.793l-8.289,8.732l-1.45-1.377l8.289-8.732L43.07,5.793"/>
	<path d="M33.332,13.163l1.45-1.377l8.289,8.732l-1.45,1.377L33.332,13.163"/>
	<path d="M43.07,20.496l-8.289,8.732l-1.45-1.377l8.289-8.732L43.07,20.496"/>
	<path d="M33.332,27.84l1.45-1.377l8.289,8.732l-1.45,1.377L33.332,27.84"/>
	<path d="M43.07,35.174l-8.289,8.732l-1.45-1.377l8.289-8.732L43.07,35.174"/>
</symbol><symbol id="zigzag_vert_yellow" viewBox="33.332 -30.95 9.739 73.484">
	<path d="M33.332-30.916l1.45-1.377l8.289,8.732l-1.45,1.377L33.332-30.916"/>
	<path d="M43.07-23.582l-8.289,8.732l-1.45-1.377l8.289-8.732L43.07-23.582"/>
	<path d="M33.332-16.212l1.45-1.377l8.289,8.732l-1.45,1.377L33.332-16.212"/>
	<path d="M43.07-8.879l-8.289,8.732l-1.45-1.377l8.289-8.732L43.07-8.879"/>
	<path d="M33.332-1.541l1.45-1.377l8.289,8.732l-1.45,1.377L33.332-1.541"/>
	<path d="M43.07,5.793l-8.289,8.732l-1.45-1.377l8.289-8.732L43.07,5.793"/>
	<path d="M33.332,13.163l1.45-1.377l8.289,8.732l-1.45,1.377L33.332,13.163"/>
	<path d="M43.07,20.496l-8.289,8.732l-1.45-1.377l8.289-8.732L43.07,20.496"/>
	<path d="M33.332,27.84l1.45-1.377l8.289,8.732l-1.45,1.377L33.332,27.84"/>
	<path d="M43.07,35.174l-8.289,8.732l-1.45-1.377l8.289-8.732L43.07,35.174"/>
</symbol></svg>