<?xml version="1.0" encoding="UTF-8"?><!DOCTYPE svg PUBLIC "-//W3C//DTD SVG 1.1//EN" "http://www.w3.org/Graphics/SVG/1.1/DTD/svg11.dtd"><svg xmlns="http://www.w3.org/2000/svg" xmlns:xlink="http://www.w3.org/1999/xlink" xmlns:sketch="http://www.bohemiancoding.com/sketch/ns"><symbol id="arrow left" viewBox="0 0 41.968 41.968">
<g id="&#x421;&#x43B;&#x43E;&#x439;_1__x28_&#x43A;&#x43E;&#x43F;&#x438;&#x44F;_x29_">
	<path fill-rule="evenodd" clip-rule="evenodd" d="M41.968,19.969v2H11.972v-2H41.968"/>
	<path fill="none" stroke="#000000" stroke-width="2" stroke-miterlimit="10" d="M1.972,20.97l16.998-9.999v19.997L1.972,20.97z"/>
</g>
<g id="&#x421;&#x43B;&#x43E;&#x439;_1" display="none">
	<path display="inline" fill-rule="evenodd" clip-rule="evenodd" d="M22.971,41.968h-2V11.972h2V41.968"/>
	<path display="inline" fill="none" stroke="#000000" stroke-width="2" stroke-miterlimit="10" d="M21.97,1.972l9.999,16.998H11.972
		L21.97,1.972z"/>
</g>
</symbol><symbol id="arrow right" viewBox="0 0 42.067 41.968">
<g id="&#x421;&#x43B;&#x43E;&#x439;_1__x28_&#x43A;&#x43E;&#x43F;&#x438;&#x44F;2_x29_">
	<path fill-rule="evenodd" clip-rule="evenodd" d="M0.097,20.971v-2h29.996v2H0.097"/>
	<path fill="none" stroke="#000000" stroke-width="2" stroke-miterlimit="10" d="M40.093,19.97l-16.998,9.999V9.972L40.093,19.97z"/>
</g>
<g id="&#x421;&#x43B;&#x43E;&#x439;_1__x28_&#x43A;&#x43E;&#x43F;&#x438;&#x44F;_x29_" display="none">
	<path display="inline" fill-rule="evenodd" clip-rule="evenodd" d="M40.093,19.969v2H10.097v-2H40.093"/>
	<path display="inline" fill="none" stroke="#000000" stroke-width="2" stroke-miterlimit="10" d="M0.097,20.97l16.998-9.999v19.997
		L0.097,20.97z"/>
</g>
<g id="&#x421;&#x43B;&#x43E;&#x439;_1" display="none">
	<path display="inline" fill-rule="evenodd" clip-rule="evenodd" d="M21.096,41.968h-2V11.972h2V41.968"/>
	<path display="inline" fill="none" stroke="#000000" stroke-width="2" stroke-miterlimit="10" d="M20.095,1.972l9.999,16.998
		H10.097L20.095,1.972z"/>
</g>
</symbol><symbol id="arrow up" viewBox="0 0 23.494 41.968">
<path fill-rule="evenodd" clip-rule="evenodd" d="M12.748,41.968h-2V11.972h2V41.968"/>
<path fill="none" stroke="#000000" stroke-width="2" stroke-miterlimit="10" d="M11.747,1.972l9.999,16.998H1.748L11.747,1.972z"/>
</symbol><symbol id="arrow_nav" viewBox="0 0 42 24">
	<path id="fill" fill-rule="evenodd" clip-rule="evenodd" d="m41.968,10.9065v2h-29.996v-2h29.996"/>
	<path id="stroke" fill="none" stroke-width="2" stroke-miterlimit="10" d="m1.972,11.9075l16.998,-9.999v19.997l-16.998,-9.998z"/>
</symbol><symbol id="close" viewBox="0 0 32 32">
	<path d="M4 8 L8 4 L16 12 L24 4 L28 8 L20 16 L28 24 L24 28 L16 20 L8 28 L4 24 L12 16 z"/>
</symbol><symbol id="line-banner" viewBox="0 0 16 2">
<path fill-rule="evenodd" fill="#fecc1a" clip-rule="evenodd" d="M0,2V0h7.999v2H0z"/>
</symbol><symbol id="Logo general" viewBox="0 0 1043.244 332.212">
<g id="International_House">
	<path fill="#003A78" d="M386.427,67.013h17.754v80.737h-17.754V67.013z"/>
	<path fill="#003A78" d="M419.084,89.293h15.268v8.139h0.339c4.072-6.558,11.08-9.721,17.867-9.721
		c17.074,0,21.37,9.608,21.37,24.08v35.96h-16.056v-33.02c0-9.607-2.829-14.358-10.29-14.358c-8.709,0-12.439,4.86-12.439,16.733
		v30.645h-16.06V89.293z"/>
	<path fill="#003A78" d="M504.483,89.293h11.76v10.74h-11.76v28.947c0,5.43,1.353,6.782,6.783,6.782
		c1.698,0,3.278-0.109,4.977-0.449v12.552c-2.715,0.449-6.218,0.564-9.388,0.564c-9.837,0-18.432-2.262-18.432-13.91v-34.486H478.7
		v-10.74h9.724V71.764h16.06V89.293z"/>
	<path fill="#003A78" d="M536.153,122.421c0.455,10.176,5.431,14.812,14.363,14.812c6.444,0,11.644-3.958,12.663-7.575h14.134
		c-4.521,13.793-14.134,19.674-27.365,19.674c-18.431,0-29.849-12.663-29.849-30.754c0-17.529,12.096-30.869,29.849-30.869
		c19.904,0,29.518,16.734,28.382,34.711H536.153z M562.276,112.245c-1.473-8.141-4.975-12.438-12.776-12.438
		c-10.177,0-13.115,7.916-13.347,12.438H562.276z"/>
	<path fill="#003A78" d="M587.818,89.293h15.268v10.854h0.226c2.939-7.351,10.856-12.437,18.66-12.437
		c1.127,0,2.484,0.225,3.504,0.564v14.922c-1.473-0.339-3.843-0.564-5.766-0.564c-11.763,0-15.83,8.48-15.83,18.77v26.347h-16.062
		V89.293z"/>
	<path fill="#003A78" d="M630.812,89.293h15.268v8.139h0.339c4.073-6.558,11.079-9.721,17.866-9.721
		c17.074,0,21.372,9.608,21.372,24.08v35.96h-16.056v-33.02c0-9.607-2.83-14.358-10.292-14.358c-8.709,0-12.435,4.86-12.435,16.733
		v30.645h-16.063V89.293z"/>
	<path fill="#003A78" d="M696.18,107.269c0.905-15.037,14.36-19.559,27.476-19.559c11.648,0,25.668,2.6,25.668,16.619v30.42
		c0,5.31,0.563,10.625,2.036,13.001h-16.284c-0.567-1.807-1.02-3.734-1.13-5.654c-5.091,5.314-12.552,7.237-19.678,7.237
		c-11.08,0-19.898-5.541-19.898-17.528c0-13.226,9.95-16.396,19.898-17.753c9.84-1.467,19.001-1.127,19.001-7.687
		c0-6.896-4.752-7.915-10.407-7.915c-6.103,0-10.061,2.484-10.625,8.818H696.18z M733.269,119.143
		c-2.716,2.375-8.371,2.485-13.347,3.392c-4.975,1.019-9.498,2.711-9.498,8.595c0,5.99,4.637,7.462,9.838,7.462
		c12.551,0,13.007-9.952,13.007-13.456V119.143z"/>
	<path fill="#003A78" d="M781.109,89.293h11.757v10.74h-11.757v28.947c0,5.43,1.352,6.782,6.781,6.782
		c1.697,0,3.28-0.109,4.976-0.449v12.552c-2.715,0.449-6.219,0.564-9.387,0.564c-9.837,0-18.433-2.262-18.433-13.91v-34.486h-9.721
		v-10.74h9.721V71.764h16.063V89.293z"/>
	<path fill="#003A78" d="M819.056,80.244h-16.054V67.013h16.054V80.244z M803.002,89.293h16.054v58.457h-16.054V89.293z"/>
	<path fill="#003A78" d="M859.103,87.71c18.43,0,30.303,12.208,30.303,30.869c0,18.542-11.873,30.754-30.303,30.754
		c-18.318,0-30.19-12.212-30.19-30.754C828.913,99.918,840.785,87.71,859.103,87.71z M859.103,137.233
		c10.969,0,14.249-9.388,14.249-18.655c0-9.388-3.28-18.771-14.249-18.771c-10.856,0-14.135,9.383-14.135,18.771
		C844.968,127.845,848.247,137.233,859.103,137.233z"/>
	<path fill="#003A78" d="M896.796,89.293h15.268v8.139h0.34c4.072-6.558,11.08-9.721,17.866-9.721
		c17.075,0,21.372,9.608,21.372,24.08v35.96h-16.058v-33.02c0-9.607-2.828-14.358-10.29-14.358c-8.709,0-12.438,4.86-12.438,16.733
		v30.645h-16.061V89.293z"/>
	<path fill="#003A78" d="M962.164,107.269c0.903-15.037,14.359-19.559,27.476-19.559c11.649,0,25.668,2.6,25.668,16.619v30.42
		c0,5.31,0.563,10.625,2.037,13.001h-16.286c-0.563-1.807-1.02-3.734-1.127-5.654c-5.092,5.314-12.554,7.237-19.681,7.237
		c-11.078,0-19.897-5.541-19.897-17.528c0-13.226,9.953-16.396,19.897-17.753c9.843-1.467,19.002-1.127,19.002-7.687
		c0-6.896-4.752-7.915-10.406-7.915c-6.104,0-10.062,2.484-10.626,8.818H962.164z M999.252,119.143
		c-2.716,2.375-8.37,2.485-13.346,3.392c-4.977,1.019-9.498,2.711-9.498,8.595c0,5.99,4.637,7.462,9.838,7.462
		c12.551,0,13.006-9.952,13.006-13.456V119.143z"/>
	<path fill="#003A78" d="M1027.189,67.013h16.055v80.737h-16.055V67.013z"/>
	<path fill="#003A78" d="M386.427,168.766h17.754v30.982h32.678v-30.982h17.754v80.737h-17.754v-34.826h-32.678v34.826h-17.754
		V168.766z"/>
	<path fill="#003A78" d="M494.889,189.463c18.431,0,30.305,12.208,30.305,30.867c0,18.542-11.874,30.753-30.305,30.753
		c-18.316,0-30.188-12.211-30.188-30.753C464.701,201.671,476.573,189.463,494.889,189.463z M494.889,238.987
		c10.971,0,14.249-9.389,14.249-18.657c0-9.386-3.278-18.771-14.249-18.771c-10.855,0-14.134,9.384-14.134,18.771
		C480.755,229.599,484.035,238.987,494.889,238.987z"/>
	<path fill="#003A78" d="M588.43,249.503h-15.268v-8.141h-0.34c-4.066,6.558-11.08,9.721-17.869,9.721
		c-17.073,0-21.369-9.613-21.369-24.084v-35.955h16.061v33.016c0,9.613,2.825,14.364,10.287,14.364
		c8.708,0,12.44-4.866,12.44-16.736v-30.644h16.058V249.503z"/>
	<path fill="#003A78" d="M612.069,230.505c0.109,7.01,5.988,9.84,12.322,9.84c4.637,0,10.515-1.814,10.515-7.464
		c0-4.864-6.673-6.561-18.202-9.046c-9.273-2.038-18.544-5.316-18.544-15.606c0-14.922,12.891-18.766,25.442-18.766
		c12.776,0,24.536,4.292,25.777,18.655h-15.261c-0.456-6.218-5.207-7.915-10.971-7.915c-3.617,0-8.935,0.679-8.935,5.424
		c0,5.77,9.049,6.56,18.207,8.71c9.383,2.145,18.541,5.539,18.541,16.395c0,15.378-13.34,20.352-26.68,20.352
		c-13.57,0-26.802-5.084-27.479-20.578H612.069z"/>
	<path fill="#003A78" d="M673.57,224.173c0.455,10.177,5.43,14.814,14.364,14.814c6.444,0,11.643-3.957,12.662-7.577h14.134
		c-4.521,13.795-14.134,19.673-27.365,19.673c-18.431,0-29.85-12.659-29.85-30.753c0-17.527,12.097-30.867,29.85-30.867
		c19.904,0,29.518,16.735,28.383,34.71H673.57z M699.694,213.998c-1.473-8.14-4.977-12.438-12.776-12.438
		c-10.178,0-13.117,7.917-13.348,12.438H699.694z"/>
</g>
<g id="Minsk_4_">
	<path fill="#6A737B" d="M385.516,272.515h18.122l13.694,40.263h0.164l12.956-40.263h18.122v58.549H436.52v-41.492h-0.164
		l-14.35,41.492h-9.922l-14.35-41.082h-0.164v41.082h-12.054V272.515z"/>
	<path fill="#6A737B" d="M468.541,282.109h-11.645v-9.595h11.645V282.109z M456.897,288.669h11.645v42.395h-11.645V288.669z"/>
	<path fill="#6A737B" d="M475.706,288.669h11.07v5.904h0.246c2.952-4.756,8.036-7.052,12.956-7.052
		c12.382,0,15.498,6.97,15.498,17.466v26.076h-11.643v-23.944c0-6.97-2.051-10.414-7.463-10.414c-6.313,0-9.02,3.526-9.02,12.136
		v22.223h-11.645V288.669z"/>
	<path fill="#6A737B" d="M531.278,317.287c0.082,5.084,4.346,7.135,8.938,7.135c3.362,0,7.627-1.313,7.627-5.412
		c0-3.526-4.839-4.757-13.202-6.56c-6.725-1.476-13.448-3.854-13.448-11.316c0-10.823,9.348-13.611,18.45-13.611
		c9.266,0,17.794,3.115,18.696,13.529h-11.07c-0.328-4.51-3.772-5.739-7.954-5.739c-2.624,0-6.479,0.491-6.479,3.935
		c0,4.183,6.561,4.756,13.202,6.315c6.807,1.558,13.448,4.018,13.448,11.89c0,11.152-9.676,14.761-19.352,14.761
		c-9.841,0-19.435-3.69-19.927-14.925H531.278z"/>
	<path fill="#6A737B" d="M565.134,272.515h11.644v31.406l14.679-15.252h13.776l-15.99,15.58l17.794,26.815h-14.104l-11.644-18.942
		l-4.511,4.347v14.596h-11.644V272.515z"/>
</g>
<g id="Round_2_">
	<g>
		<path fill="#003A78" d="M331.203,165.601c0,91.458-74.147,165.602-165.605,165.602C74.143,331.203,0,257.059,0,165.601
			C0,74.141,74.143,0,165.598,0C257.056,0,331.203,74.141,331.203,165.601z"/>
	</g>
</g>
<g id="IH">
	<path fill="#FFFFFF" d="M154.671,70.416c-10.926,0-19.793,8.869-19.793,19.817c0,10.921,8.867,19.796,19.793,19.796
		c10.944,0,19.797-8.876,19.797-19.796C174.468,79.285,165.616,70.416,154.671,70.416z"/>
	<rect x="136.479" y="119.037" fill="#FFFFFF" width="36.324" height="130.825"/>
	<path fill="#FFFFFF" d="M226.726,135.064V66.132h-37.257v183.703h37.257v-71.328c-0.163-14.322,7.07-30.249,23.186-29.842
		c23.314,0.585,21.433,20.002,21.433,37.907v63.263h36.603l-0.055-79.489c0.58-18.754-0.023-56.972-43.637-56.972
		C248.626,113.374,233.081,121.467,226.726,135.064z"/>
</g>
</symbol><symbol id="map_marker" viewBox="19.989 0 101.754 139.273">
<g id="Livello_110">
	<path fill="#003A78" d="M95.35,50.645c0,13.98-11.389,25.322-25.438,25.322c-14.051,0-25.438-11.342-25.438-25.322
		c0-13.984,11.389-25.322,25.438-25.322C83.964,25.322,95.35,36.66,95.35,50.645 M121.743,50.645C121.743,22.674,98.966,0,70.866,0
		C42.768,0,19.989,22.674,19.989,50.645c0,12.298,4.408,23.574,11.733,32.345l39.188,56.283l39.761-57.104
		c1.428-1.779,2.736-3.654,3.916-5.625l0.402-0.574h-0.066C119.253,68.516,121.743,59.874,121.743,50.645"/>
</g>
<g id="Livello_1_1_">
</g>
<g id="Round_2_">
	<g>
		<path fill="#003A78" d="M111.866,51.601c0,22.643-18.357,41-41.001,41c-22.643,0-40.999-18.357-40.999-41
			c0-22.644,18.356-41,40.999-41C93.509,10.602,111.866,28.958,111.866,51.601z"/>
	</g>
</g>
<g id="IH">
	<path fill="#FFFFFF" d="M49.887,22.618c-3.568,0-6.464,2.896-6.464,6.472c0,3.566,2.896,6.465,6.464,6.465
		c3.574,0,6.465-2.899,6.465-6.465C56.352,25.514,53.461,22.618,49.887,22.618z"/>
	<rect x="43.946" y="38.496" fill="#FFFFFF" width="11.862" height="42.723"/>
	<path fill="#FFFFFF" d="M73.417,43.73V21.219H61.25V81.21h12.167V57.917c-0.053-4.677,2.309-9.878,7.572-9.745
		c7.614,0.191,6.999,6.532,6.999,12.379v20.66h11.953l-0.018-25.958c0.189-6.124-0.008-18.605-14.25-18.605
		C80.569,36.646,75.493,39.289,73.417,43.73z"/>
</g>
</symbol><symbol id="marker" viewBox="0 0 24 24">
	<g fill="none" fill-rule="evenodd" id="miu" stroke="none" stroke-width="1">
		<g transform="translate(-471.000000, -443.000000)">
			<g id="slice" transform="translate(215.000000, 119.000000)"/>
			<path d="M479.5,466 C479.5,466 487,456.127718 487,451.812818 C487,447.497918 484.518799,443.999999 479.5,444 C474.481201,444.000001 472,447.497918 472,451.812818 C472,456.127718 479.5,466 479.5,466 L479.5,466 Z M479.5,454.5 C481.709139,454.5 483.5,452.709139 483.5,450.5 C483.5,448.290861 481.709139,446.5 479.5,446.5 C477.290861,446.5 475.5,448.290861 475.5,450.5 C475.5,452.709139 477.290861,454.5 479.5,454.5 L479.5,454.5 Z" fill="#fecc1a" id="map-location-pin-map-marker-glyph"/>
		</g>
	</g>
</symbol><symbol id="menu" viewBox="0 0 29 22">
	<g>
		<rect fill="#231F20" height="4" width="29"/>
		<rect class="middle__path" fill="#231F20" height="4" width="29" y="9"/>
		<rect fill="#231F20" height="4" width="29" y="18"/>
	</g>
</symbol><symbol id="pin" viewBox="0 0 60 60">
	<g fill="none" fill-rule="evenodd" id="black" stroke="none" stroke-width="1">
	<g id="slice" transform="translate(-401.000000, -601.000000)"/>
		<g fill="#000000" id="location" transform="translate(0.000000, 0.000000)">
			<path d="M0.307692308,12.3846154 C0.307692308,18.7576923 11.8461538,33.6631611 11.8461538,33.2583571 C11.8461538,32.8535532 23.3846154,18.7576923 23.3846154,12.3846154 C23.3846154,6.01153846 18.2153846,0.846153846 11.8461538,0.846153846 C5.47692308,0.846153846 0.307692308,6.01153846 0.307692308,12.3846154 Z M6.07692308,11.2307692 C6.07692308,14.4173077 8.66153846,17 11.8461538,17 C15.0307692,17 17.6153846,14.4173077 17.6153846,11.2307692 C17.6153846,8.04423077 15.0307692,5.46153846 11.8461538,5.46153846 C8.66153846,5.46153846 6.07692308,8.04423077 6.07692308,11.2307692 Z"/>
		</g>
	</g>
</symbol><symbol id="social fb" viewBox="0 0 94.109 94.078">
<g id="&#x421;&#x43B;&#x43E;&#x439;_1__x28_&#x43A;&#x43E;&#x43F;&#x438;&#x44F;_x29_">
	<path fill="none" stroke="#000000" stroke-width="2" stroke-miterlimit="10" d="M47.099,92.628L1.505,47.034L47.099,1.44
		l45.594,45.594L47.099,92.628z"/>
	<path display="none" fill="#010202" d="M49.578,39.451h7.313l-0.51,6.382h-6.803v22.174h-8.593V45.834h-4.586v-6.382h4.586v-4.289
		c0-1.887,0.05-4.805,1.477-6.611c1.504-1.91,3.569-3.209,7.116-3.209c5.783,0,8.221,0.791,8.221,0.791l-1.147,6.537
		c0,0-1.91-0.532-3.694-0.532c-1.783,0-3.38,0.612-3.38,2.329L49.578,39.451L49.578,39.451z"/>
</g>
<g id="&#x421;&#x43B;&#x43E;&#x439;_1">
	<path display="none" fill="none" stroke="#000000" stroke-miterlimit="10" d="M47.099,92.628L1.505,47.034L47.099,1.44
		l45.594,45.594L47.099,92.628z"/>
	<path fill="#010202" d="M49.655,42.142h4.59l-0.32,4.006h-4.27v13.917h-5.393V46.147h-2.878v-4.006h2.878v-2.692
		c0-1.184,0.031-3.015,0.927-4.149c0.944-1.199,2.24-2.014,4.466-2.014c3.629,0,5.16,0.497,5.16,0.497l-0.72,4.103
		c0,0-1.199-0.334-2.318-0.334c-1.119,0-2.121,0.384-2.121,1.462L49.655,42.142L49.655,42.142z"/>
</g>
</symbol><symbol id="social g" viewBox="0 0 94.109 94.078">
<g id="&#x421;&#x43B;&#x43E;&#x439;_1__x28_&#x43A;&#x43E;&#x43F;&#x438;&#x44F;_x29_">
	<path fill="none" stroke="#000000" stroke-width="2" stroke-miterlimit="10" d="M47.099,92.628L1.505,47.034L47.099,1.44
		l45.594,45.594L47.099,92.628z"/>
	<path display="none" fill="#010202" d="M49.578,39.451h7.313l-0.51,6.382h-6.803v22.174h-8.593V45.834h-4.586v-6.382h4.586v-4.289
		c0-1.887,0.05-4.805,1.477-6.611c1.504-1.91,3.569-3.209,7.116-3.209c5.783,0,8.221,0.791,8.221,0.791l-1.147,6.537
		c0,0-1.91-0.532-3.694-0.532c-1.783,0-3.38,0.612-3.38,2.329L49.578,39.451L49.578,39.451z"/>
</g>
<g id="&#x421;&#x43B;&#x43E;&#x439;_1">
	<path display="none" fill="none" stroke="#000000" stroke-miterlimit="10" d="M47.099,92.628L1.505,47.034L47.099,1.44
		l45.594,45.594L47.099,92.628z"/>
	<path display="none" fill="#010202" d="M49.655,42.142h4.59l-0.32,4.006h-4.27v13.917h-5.393V46.147h-2.878v-4.006h2.878v-2.692
		c0-1.184,0.031-3.015,0.927-4.149c0.944-1.199,2.24-2.014,4.466-2.014c3.629,0,5.16,0.497,5.16,0.497l-0.72,4.103
		c0,0-1.199-0.334-2.318-0.334c-1.119,0-2.121,0.384-2.121,1.462L49.655,42.142L49.655,42.142z"/>
	<path display="none" fill="#010202" d="M63.45,38.267c-1.194,0.531-2.48,0.889-3.828,1.049c1.377-0.824,2.433-2.13,2.931-3.688
		c-1.288,0.764-2.714,1.319-4.233,1.618c-1.215-1.295-2.948-2.105-4.865-2.105c-3.681,0-6.665,2.984-6.665,6.665
		c0,0.522,0.059,1.03,0.173,1.519c-5.54-0.278-10.452-2.931-13.739-6.964c-0.574,0.984-0.902,2.129-0.902,3.352
		c0,2.312,1.177,4.353,2.965,5.548c-1.092-0.035-2.12-0.335-3.019-0.834c-0.001,0.028-0.001,0.056-0.001,0.084
		c0,3.229,2.298,5.922,5.347,6.536c-0.559,0.152-1.148,0.233-1.756,0.233c-0.43,0-0.847-0.042-1.254-0.12
		c0.849,2.648,3.31,4.576,6.226,4.629c-2.281,1.788-5.155,2.854-8.278,2.854c-0.537,0-1.068-0.032-1.59-0.094
		c2.951,1.892,6.454,2.995,10.218,2.995c12.261,0,18.964-10.156,18.964-18.964c0-0.289-0.006-0.577-0.018-0.863
		C61.426,40.779,62.557,39.604,63.45,38.267z"/>
	<path display="none" fill="#010202" d="M55.836,31.337H36.575c-3.346,0-6.068,2.721-6.068,6.067v6.409v12.853
		c0,3.346,2.722,6.067,6.068,6.067h19.262c3.346,0,6.067-2.721,6.067-6.067V43.812v-6.409
		C61.903,34.057,59.182,31.337,55.836,31.337z M57.576,34.954l0.694-0.003v0.691v4.631l-5.304,0.017l-0.018-5.321L57.576,34.954z
		 M41.724,43.812c1.006-1.391,2.637-2.304,4.481-2.304s3.475,0.913,4.48,2.304c0.654,0.908,1.046,2.019,1.046,3.222
		c0,3.047-2.481,5.525-5.527,5.525c-3.047,0-5.526-2.479-5.526-5.525C40.679,45.831,41.07,44.72,41.724,43.812z M58.844,56.664
		c0,1.66-1.35,3.008-3.008,3.008H36.575c-1.659,0-3.009-1.348-3.009-3.008V43.812h4.686c-0.405,0.996-0.632,2.083-0.632,3.222
		c0,4.733,3.85,8.586,8.585,8.586c4.734,0,8.584-3.853,8.584-8.586c0-1.139-0.229-2.227-0.633-3.222h4.688V56.664z"/>
	<g>
		<path fill="#010202" d="M64.089,44.108H58.82v-5.267c0-0.402-0.326-0.729-0.727-0.729h-1.5c-0.404,0-0.73,0.327-0.73,0.729v5.267
			h-5.269c-0.401,0-0.729,0.328-0.729,0.73v1.5c0,0.403,0.328,0.729,0.729,0.729h5.269v5.27c0,0.403,0.326,0.729,0.73,0.729h1.5
			c0.401,0,0.727-0.326,0.727-0.729v-5.271h5.269c0.401,0,0.729-0.326,0.729-0.729v-1.5C64.818,44.435,64.49,44.108,64.089,44.108z"/>
		<path fill="#010202" d="M46.384,48.727c-1.108-0.785-2.115-1.936-2.133-2.289c0-0.644,0.058-0.952,1.502-2.077
			c1.867-1.462,2.895-3.383,2.895-5.414c0-1.841-0.562-3.477-1.52-4.625h0.743c0.154,0,0.304-0.048,0.427-0.137l2.073-1.502
			c0.257-0.184,0.365-0.513,0.267-0.814c-0.099-0.3-0.377-0.505-0.693-0.505h-9.269c-1.014,0-2.044,0.179-3.056,0.527
			c-3.378,1.165-5.74,4.043-5.74,6.998c0,4.186,3.243,7.359,7.578,7.459c-0.085,0.332-0.128,0.659-0.128,0.979
			c0,0.645,0.163,1.256,0.5,1.847c-0.039,0-0.077,0-0.119,0c-4.132,0-7.862,2.028-9.278,5.045c-0.369,0.785-0.557,1.578-0.557,2.361
			c0,0.762,0.196,1.495,0.579,2.183c0.89,1.592,2.801,2.827,5.384,3.479c1.333,0.337,2.766,0.508,4.254,0.508
			c1.337,0,2.611-0.173,3.789-0.513c3.674-1.067,6.049-3.771,6.049-6.893C49.931,52.349,48.968,50.555,46.384,48.727z
			 M34.678,55.584c0-2.179,2.768-4.09,5.924-4.09h0.085c0.687,0.008,1.356,0.109,1.988,0.303c0.217,0.149,0.426,0.292,0.626,0.429
			c1.462,0.996,2.427,1.653,2.696,2.708c0.063,0.266,0.095,0.532,0.095,0.789c0,2.714-2.023,4.089-6.016,4.089
			C37.048,59.811,34.678,57.955,34.678,55.584z M37.549,34.994c0.493-0.563,1.139-0.861,1.864-0.861l0.082,0.001
			c2.049,0.06,4.009,2.343,4.369,5.089c0.203,1.537-0.14,2.983-0.912,3.864c-0.494,0.565-1.131,0.862-1.886,0.862c0,0,0,0-0.001,0
			h-0.033c-2.007-0.062-4.009-2.432-4.367-5.174C36.463,37.243,36.786,35.865,37.549,34.994z"/>
	</g>
</g>
</symbol><symbol id="social insta" viewBox="0 0 94.109 94.078">
<g id="&#x421;&#x43B;&#x43E;&#x439;_1__x28_&#x43A;&#x43E;&#x43F;&#x438;&#x44F;_x29_">
	<path fill="none" stroke="#000000" stroke-width="2" stroke-miterlimit="10" d="M47.099,92.628L1.505,47.034L47.099,1.44
		l45.594,45.594L47.099,92.628z"/>
	<path display="none" fill="#010202" d="M49.578,39.451h7.313l-0.51,6.382h-6.803v22.174h-8.593V45.834h-4.586v-6.382h4.586v-4.289
		c0-1.887,0.05-4.805,1.477-6.611c1.504-1.91,3.569-3.209,7.116-3.209c5.783,0,8.221,0.791,8.221,0.791l-1.147,6.537
		c0,0-1.91-0.532-3.694-0.532c-1.783,0-3.38,0.612-3.38,2.329L49.578,39.451L49.578,39.451z"/>
</g>
<g id="&#x421;&#x43B;&#x43E;&#x439;_1">
	<path display="none" fill="none" stroke="#000000" stroke-miterlimit="10" d="M47.099,92.628L1.505,47.034L47.099,1.44
		l45.594,45.594L47.099,92.628z"/>
	<path display="none" fill="#010202" d="M49.655,42.142h4.59l-0.32,4.006h-4.27v13.917h-5.393V46.147h-2.878v-4.006h2.878v-2.692
		c0-1.184,0.031-3.015,0.927-4.149c0.944-1.199,2.24-2.014,4.466-2.014c3.629,0,5.16,0.497,5.16,0.497l-0.72,4.103
		c0,0-1.199-0.334-2.318-0.334c-1.119,0-2.121,0.384-2.121,1.462L49.655,42.142L49.655,42.142z"/>
	<path display="none" fill="#010202" d="M63.45,38.267c-1.194,0.531-2.48,0.889-3.828,1.049c1.377-0.824,2.433-2.13,2.931-3.688
		c-1.288,0.764-2.714,1.319-4.233,1.618c-1.215-1.295-2.948-2.105-4.865-2.105c-3.681,0-6.665,2.984-6.665,6.665
		c0,0.522,0.059,1.03,0.173,1.519c-5.54-0.278-10.452-2.931-13.739-6.964c-0.574,0.984-0.902,2.129-0.902,3.352
		c0,2.312,1.177,4.353,2.965,5.548c-1.092-0.035-2.12-0.335-3.019-0.834c-0.001,0.028-0.001,0.056-0.001,0.084
		c0,3.229,2.298,5.922,5.347,6.536c-0.559,0.152-1.148,0.233-1.756,0.233c-0.43,0-0.847-0.042-1.254-0.12
		c0.849,2.648,3.31,4.576,6.226,4.629c-2.281,1.788-5.155,2.854-8.278,2.854c-0.537,0-1.068-0.032-1.59-0.094
		c2.951,1.892,6.454,2.995,10.218,2.995c12.261,0,18.964-10.156,18.964-18.964c0-0.289-0.006-0.577-0.018-0.863
		C61.426,40.779,62.557,39.604,63.45,38.267z"/>
	<path fill="#010202" d="M55.836,31.337H36.575c-3.346,0-6.068,2.721-6.068,6.067v6.409v12.853c0,3.346,2.722,6.067,6.068,6.067
		h19.262c3.346,0,6.067-2.721,6.067-6.067V43.812v-6.409C61.903,34.057,59.182,31.337,55.836,31.337z M57.576,34.954l0.694-0.003
		v0.691v4.631l-5.304,0.017l-0.018-5.321L57.576,34.954z M41.724,43.812c1.006-1.391,2.637-2.304,4.481-2.304
		s3.475,0.913,4.48,2.304c0.654,0.908,1.046,2.019,1.046,3.222c0,3.047-2.481,5.525-5.527,5.525c-3.047,0-5.526-2.479-5.526-5.525
		C40.679,45.831,41.07,44.72,41.724,43.812z M58.844,56.664c0,1.66-1.35,3.008-3.008,3.008H36.575c-1.659,0-3.009-1.348-3.009-3.008
		V43.812h4.686c-0.405,0.996-0.632,2.083-0.632,3.222c0,4.733,3.85,8.586,8.585,8.586c4.734,0,8.584-3.853,8.584-8.586
		c0-1.139-0.229-2.227-0.633-3.222h4.688V56.664z"/>
</g>
</symbol><symbol id="social tw" viewBox="0 0 94.109 94.078">
<g id="&#x421;&#x43B;&#x43E;&#x439;_1__x28_&#x43A;&#x43E;&#x43F;&#x438;&#x44F;_x29_">
	<path fill="none" stroke="#000000" stroke-width="2" stroke-miterlimit="10" d="M47.099,92.628L1.505,47.034L47.099,1.44
		l45.594,45.594L47.099,92.628z"/>
	<path display="none" fill="#010202" d="M49.578,39.451h7.313l-0.51,6.382h-6.803v22.174h-8.593V45.834h-4.586v-6.382h4.586v-4.289
		c0-1.887,0.05-4.805,1.477-6.611c1.504-1.91,3.569-3.209,7.116-3.209c5.783,0,8.221,0.791,8.221,0.791l-1.147,6.537
		c0,0-1.91-0.532-3.694-0.532c-1.783,0-3.38,0.612-3.38,2.329L49.578,39.451L49.578,39.451z"/>
</g>
<g id="&#x421;&#x43B;&#x43E;&#x439;_1">
	<path display="none" fill="none" stroke="#000000" stroke-miterlimit="10" d="M47.099,92.628L1.505,47.034L47.099,1.44
		l45.594,45.594L47.099,92.628z"/>
	<path display="none" fill="#010202" d="M49.655,42.142h4.59l-0.32,4.006h-4.27v13.917h-5.393V46.147h-2.878v-4.006h2.878v-2.692
		c0-1.184,0.031-3.015,0.927-4.149c0.944-1.199,2.24-2.014,4.466-2.014c3.629,0,5.16,0.497,5.16,0.497l-0.72,4.103
		c0,0-1.199-0.334-2.318-0.334c-1.119,0-2.121,0.384-2.121,1.462L49.655,42.142L49.655,42.142z"/>
	<path fill="#010202" d="M63.45,38.267c-1.194,0.531-2.48,0.889-3.828,1.049c1.377-0.824,2.433-2.13,2.931-3.688
		c-1.288,0.764-2.714,1.319-4.233,1.618c-1.215-1.295-2.948-2.105-4.865-2.105c-3.681,0-6.665,2.984-6.665,6.665
		c0,0.522,0.059,1.03,0.173,1.519c-5.54-0.278-10.452-2.931-13.739-6.964c-0.574,0.984-0.902,2.129-0.902,3.352
		c0,2.312,1.177,4.353,2.965,5.548c-1.092-0.035-2.12-0.335-3.019-0.834c-0.001,0.028-0.001,0.056-0.001,0.084
		c0,3.229,2.298,5.922,5.347,6.536c-0.559,0.152-1.148,0.233-1.756,0.233c-0.43,0-0.847-0.042-1.254-0.12
		c0.849,2.648,3.31,4.576,6.226,4.629c-2.281,1.788-5.155,2.854-8.278,2.854c-0.537,0-1.068-0.032-1.59-0.094
		c2.951,1.892,6.454,2.995,10.218,2.995c12.261,0,18.964-10.156,18.964-18.964c0-0.289-0.006-0.577-0.018-0.863
		C61.426,40.779,62.557,39.604,63.45,38.267z"/>
</g>
</symbol><symbol id="triangle" viewBox="0 0 18.484 21.746">
	<path fill="none" stroke-width="2" stroke-miterlimit="1" d="M17.498,10.873L0.5,0.874v19.997L17.498,10.873z"/>
</symbol><symbol id="zigzag" viewBox="0 0 76.3 10.663">
<path fill-rule="evenodd" clip-rule="evenodd" d="M1.479,10.676l-1.377-1.45l8.732-8.289l1.377,1.45L1.479,10.676"/>
<path fill-rule="evenodd" clip-rule="evenodd" d="M8.813,0.937l8.732,8.289l-1.377,1.45L7.436,2.387L8.813,0.937"/>
<path fill-rule="evenodd" clip-rule="evenodd" d="M16.183,10.676l-1.377-1.45l8.732-8.289l1.377,1.45L16.183,10.676"/>
<path fill-rule="evenodd" clip-rule="evenodd" d="M23.516,0.937l8.732,8.289l-1.377,1.45l-8.732-8.289L23.516,0.937"/>
<path fill-rule="evenodd" clip-rule="evenodd" d="M30.854,10.676l-1.377-1.45l8.732-8.289l1.377,1.45L30.854,10.676"/>
<path fill-rule="evenodd" clip-rule="evenodd" d="M38.188,0.937l8.732,8.289l-1.377,1.45l-8.732-8.289L38.188,0.937"/>
<path fill-rule="evenodd" clip-rule="evenodd" d="M45.558,10.676l-1.377-1.45l8.732-8.289l1.377,1.45L45.558,10.676"/>
<path fill-rule="evenodd" clip-rule="evenodd" d="M52.891,0.937l8.732,8.289l-1.377,1.45l-8.732-8.289L52.891,0.937"/>
<path fill-rule="evenodd" clip-rule="evenodd" d="M60.235,10.676l-1.377-1.45l8.732-8.289l1.377,1.45L60.235,10.676"/>
<path fill-rule="evenodd" clip-rule="evenodd" d="M67.568,0.937L76.3,9.226l-1.377,1.45l-8.732-8.289L67.568,0.937"/>
<path display="none" fill-rule="evenodd" clip-rule="evenodd" d="M15.331,10.661l1.416-1.287L9.161,0.666L7.745,1.953L15.331,10.661
	"/>
<polygon display="none" fill-rule="evenodd" clip-rule="evenodd" points="24.271,2.642 15.286,10.656 13.952,9.172 22.937,1.157 "/>
<path display="none" fill-rule="evenodd" clip-rule="evenodd" d="M30.327,10.663l1.417-1.286l-7.582-8.713L22.745,1.95
	L30.327,10.663"/>
<path display="none" fill-rule="evenodd" clip-rule="evenodd" d="M31.491,10.327l-1.495-1.328L37.995,0l1.495,1.329L31.491,10.327"/>
<path display="none" fill-rule="evenodd" clip-rule="evenodd" d="M45.325,10.663l1.417-1.286L39.16,0.664L37.743,1.95L45.325,10.663
	"/>
<path display="none" fill-rule="evenodd" clip-rule="evenodd" d="M46.489,10.327l-1.495-1.328L52.993,0l1.495,1.329L46.489,10.327"/>
<path display="none" fill-rule="evenodd" clip-rule="evenodd" d="M60.323,10.663l1.417-1.286l-7.582-8.713L52.741,1.95
	L60.323,10.663"/>
<path display="none" fill-rule="evenodd" clip-rule="evenodd" d="M61.487,10.327l-1.495-1.328L67.992,0l1.495,1.329L61.487,10.327"/>
<path display="none" fill-rule="evenodd" clip-rule="evenodd" d="M75.321,10.663l1.417-1.286l-7.582-8.713L67.739,1.95
	L75.321,10.663"/>
<path display="none" fill-rule="evenodd" clip-rule="evenodd" d="M20.727,0.014L13.14,8.723l1.416,1.287l7.587-8.709L20.727,0.014"/>
<polygon display="none" fill-rule="evenodd" clip-rule="evenodd" points="29.667,8.034 20.682,0.019 19.348,1.504 28.333,9.519 "/>
<path display="none" fill-rule="evenodd" clip-rule="evenodd" d="M35.723,0.013L28.14,8.726l1.417,1.286l7.582-8.712L35.723,0.013"/>
<path display="none" fill-rule="evenodd" clip-rule="evenodd" d="M36.887,0.349l7.999,8.999l-1.495,1.328l-7.999-8.999L36.887,0.349
	"/>
<path display="none" fill-rule="evenodd" clip-rule="evenodd" d="M50.721,0.013l-7.582,8.713l1.417,1.286l7.582-8.712L50.721,0.013"/>
<path display="none" fill-rule="evenodd" clip-rule="evenodd" d="M51.885,0.349l7.999,8.999l-1.495,1.328L50.39,1.677L51.885,0.349"/>
<path display="none" fill-rule="evenodd" clip-rule="evenodd" d="M65.719,0.013l-7.582,8.713l1.417,1.286l7.582-8.712L65.719,0.013"/>
<path display="none" fill-rule="evenodd" clip-rule="evenodd" d="M66.883,0.349l7.999,8.999l-1.495,1.328l-7.999-8.999L66.883,0.349
	"/>
<path display="none" fill-rule="evenodd" clip-rule="evenodd" d="M80.717,10.663l1.417-1.286l-7.582-8.713L73.135,1.95
	L80.717,10.663"/>
</symbol><symbol id="zigzag_vert_pink" viewBox="33.332 -30.95 9.739 73.484">
	<path d="M33.332-30.916l1.45-1.377l8.289,8.732l-1.45,1.377L33.332-30.916"/>
	<path d="M43.07-23.582l-8.289,8.732l-1.45-1.377l8.289-8.732L43.07-23.582"/>
	<path d="M33.332-16.212l1.45-1.377l8.289,8.732l-1.45,1.377L33.332-16.212"/>
	<path d="M43.07-8.879l-8.289,8.732l-1.45-1.377l8.289-8.732L43.07-8.879"/>
	<path d="M33.332-1.541l1.45-1.377l8.289,8.732l-1.45,1.377L33.332-1.541"/>
	<path d="M43.07,5.793l-8.289,8.732l-1.45-1.377l8.289-8.732L43.07,5.793"/>
	<path d="M33.332,13.163l1.45-1.377l8.289,8.732l-1.45,1.377L33.332,13.163"/>
	<path d="M43.07,20.496l-8.289,8.732l-1.45-1.377l8.289-8.732L43.07,20.496"/>
	<path d="M33.332,27.84l1.45-1.377l8.289,8.732l-1.45,1.377L33.332,27.84"/>
	<path d="M43.07,35.174l-8.289,8.732l-1.45-1.377l8.289-8.732L43.07,35.174"/>
</symbol></svg>